<svg enable-background="new 0 0 1028.7 714.7" viewBox="0 0 1028.7 714.7" xmlns="http://www.w3.org/2000/svg"><ellipse cx="678.6" cy="354.1" fill="#e5f2e5" rx="345" ry="343.7" stroke="#878684" stroke-dasharray="12 12" stroke-miterlimit="9"/><text font-family="-apple-system, BlinkMacSystemFont, 'Segoe UI', 'Roboto', Ubuntu, Liberation Sans, sans-serif" font-size="28.1226" transform="translate(648.05 34.717)">CSS3</text><path d="m905.6 367.8c0-126-102.5-228.2-228.8-228.2s-228.9 102.2-228.9 228.2 102.5 228.2 228.8 228.2 228.9-102.1 228.9-228.2z" fill="#add9e5" stroke="#878684" stroke-miterlimit="10"/><text font-family="-apple-system, BlinkMacSystemFont, 'Segoe UI', 'Roboto', Ubuntu, Liberation Sans, sans-serif" font-size="25.8451" transform="translate(639.92 166.39)">CSS2.1</text><ellipse cx="680.2" cy="426.2" fill="none" rx="152.6" ry="150.4" stroke="#878684" stroke-dasharray="12 12" stroke-miterlimit="10"/><text font-family="-apple-system, BlinkMacSystemFont, 'Segoe UI', 'Roboto', Ubuntu, Liberation Sans, sans-serif" font-size="23.6572" transform="translate(653.812 299.74)">CSS1</text><circle cx="679.5" cy="432.7" fill="#83af40" r="42.9" stroke="#000"/><text fill="#fff" font-family="-apple-system, BlinkMacSystemFont, 'Segoe UI', 'Roboto', Ubuntu, Liberation Sans, sans-serif" font-size="18" transform="translate(659.6901 429.086)">CSS</text><text fill="#fff" transform="translate(696.7009 429.086)"/><text fill="#fff" font-family="-apple-system, BlinkMacSystemFont, 'Segoe UI', 'Roboto', Ubuntu, Liberation Sans, sans-serif" font-size="18" transform="translate(653.1818 450.686)">Syntax</text><path d="m788.4 215.8c4.7 18.2-6.3 36.8-24.6 41.5-18.2 4.7-36.8-6.3-41.5-24.6-4.7-18.2 6.3-36.8 24.6-41.5 18.2-4.7 36.8 6.3 41.5 24.6z" fill="#83af40" stroke="#000"/><text fill="#fff" font-family="-apple-system, BlinkMacSystemFont, 'Segoe UI', 'Roboto', Ubuntu, Liberation Sans, sans-serif" font-size="13" transform="translate(723.9761 223.323)">Generated</text><text fill="#fff" transform="translate(788.1343 223.323)"/><text fill="#fff" font-family="-apple-system, BlinkMacSystemFont, 'Segoe UI', 'Roboto', Ubuntu, Liberation Sans, sans-serif" font-size="14" transform="translate(734.0381 240.123)">content</text><path d="m853.6 263.8c4.7 18.2-6.3 36.8-24.6 41.5-18.2 4.7-36.8-6.3-41.5-24.6-4.7-18.2 6.3-36.8 24.6-41.5 18.3-4.6 36.9 6.4 41.5 24.6z" fill="#83af40" stroke="#000"/><text fill="#fff" font-family="-apple-system, BlinkMacSystemFont, 'Segoe UI', 'Roboto', Ubuntu, Liberation Sans, sans-serif" font-size="14" transform="translate(800.2636 277.354)">Tables</text><path d="m893.7 333.4c4.7 18.2-6.3 36.8-24.6 41.5-18.2 4.7-36.8-6.3-41.5-24.6-4.7-18.2 6.3-36.8 24.6-41.5 18.2-4.6 36.8 6.3 41.5 24.6z" fill="#83af40" stroke="#000"/><text fill="#fff" font-family="-apple-system, BlinkMacSystemFont, 'Segoe UI', 'Roboto', Ubuntu, Liberation Sans, sans-serif" font-size="14" transform="translate(838.357 338.096)">Paged</text><text fill="#fff" transform="translate(878.8394 338.096)"/><text fill="#fff" font-family="-apple-system, BlinkMacSystemFont, 'Segoe UI', 'Roboto', Ubuntu, Liberation Sans, sans-serif" font-size="14" transform="translate(841.4776 357.296)">media</text><path d="m445.5 257.1c.7 18.8-14 34.6-32.8 35.3s-34.6-14-35.3-32.8 14-34.6 32.8-35.3 34.6 14 35.3 32.8z" fill="#ed1e24" stroke="#000"/><text fill="#fff" font-family="-apple-system, BlinkMacSystemFont, 'Segoe UI', 'Roboto', Ubuntu, Liberation Sans, sans-serif" font-size="14" transform="translate(390.211 255.5)">Paged</text><text fill="#fff" transform="translate(428.6934 255.5)"/><text fill="#fff" font-family="-apple-system, BlinkMacSystemFont, 'Segoe UI', 'Roboto', Ubuntu, Liberation Sans, sans-serif" font-size="14" transform="translate(391.3316 274.7)">Media</text><path d="m711.3 208.9c0 18.8-15.3 34.1-34.1 34.1s-34.1-15.3-34.1-34.1 15.3-34.1 34.1-34.1 34.1 15.3 34.1 34.1z" fill="#83af40" stroke="#000"/><text fill="#fff" font-family="-apple-system, BlinkMacSystemFont, 'Segoe UI', 'Roboto', Ubuntu, Liberation Sans, sans-serif" font-size="14" transform="translate(655.4462 204.2)">Visual</text><text fill="#fff" transform="translate(693.3242 204.2)"/><text fill="#fff" font-family="-apple-system, BlinkMacSystemFont, 'Segoe UI', 'Roboto', Ubuntu, Liberation Sans, sans-serif" font-size="14" transform="translate(655.06 223.4)">Effects</text><circle cx="580.8" cy="434.9" fill="#83af40" r="34.1" stroke="#000"/><text fill="#fff" font-family="-apple-system, BlinkMacSystemFont, 'Segoe UI', 'Roboto', Ubuntu, Liberation Sans, sans-serif" font-size="14" transform="translate(553.2195 440.952)">Cascade</text><circle cx="638.9" cy="515.8" fill="#83af40" r="34.1" stroke="#000"/><text fill="#fff" font-family="-apple-system, BlinkMacSystemFont, 'Segoe UI', 'Roboto', Ubuntu, Liberation Sans, sans-serif" font-size="14" transform="translate(614.591 511.488)">Pseudo</text><text fill="#fff" transform="translate(662.0734 511.488)"/><text fill="#fff" font-family="-apple-system, BlinkMacSystemFont, 'Segoe UI', 'Roboto', Ubuntu, Liberation Sans, sans-serif" font-size="14" transform="translate(614.1805 530.688)">Classes</text><circle cx="736.9" cy="511.1" fill="#83af40" r="34.1" stroke="#000"/><text fill="#fff" font-family="-apple-system, BlinkMacSystemFont, 'Segoe UI', 'Roboto', Ubuntu, Liberation Sans, sans-serif" font-size="14" transform="translate(722.9932 504.828)">Box</text><text fill="#fff" transform="translate(747.1172 504.828)"/><text fill="#fff" font-family="-apple-system, BlinkMacSystemFont, 'Segoe UI', 'Roboto', Ubuntu, Liberation Sans, sans-serif" font-size="13" transform="translate(708.0967 521.628)">Properties</text><path d="m804.4 406.3c14 12.6 15.2 34.1 2.6 48.2-12.6 14-34.1 15.2-48.2 2.6-14-12.6-15.2-34.1-2.6-48.2 12.6-14 34.2-15.2 48.2-2.6z" fill="#83af40" stroke="#000"/><text fill="#fff" font-family="-apple-system, BlinkMacSystemFont, 'Segoe UI', 'Roboto', Ubuntu, Liberation Sans, sans-serif" font-size="14" transform="translate(766.3373 425.024)">Text</text><text fill="#fff" transform="translate(792.0131 425.024)"/><text fill="#fff" font-family="-apple-system, BlinkMacSystemFont, 'Segoe UI', 'Roboto', Ubuntu, Liberation Sans, sans-serif" font-size="14" transform="translate(749.2167 441.824)">Properties</text><circle cx="727.5" cy="353.4" fill="#83af40" r="34.1" stroke="#000"/><text fill="#fff" font-family="-apple-system, BlinkMacSystemFont, 'Segoe UI', 'Roboto', Ubuntu, Liberation Sans, sans-serif" font-size="14" transform="translate(702.3709 348.488)">Color +</text><text fill="#fff" transform="translate(747.8914 348.488)"/><text fill="#fff" font-family="-apple-system, BlinkMacSystemFont, 'Segoe UI', 'Roboto', Ubuntu, Liberation Sans, sans-serif" font-size="12" transform="translate(695.386 364.088)">Background</text><path d="m656.8 355.5c.1 18.8-15 34.2-33.8 34.4-18.8.1-34.2-15-34.4-33.8-.1-18.8 15-34.2 33.8-34.4s34.2 15 34.4 33.8z" fill="#83af40" stroke="#000"/><text fill="#fff" font-family="-apple-system, BlinkMacSystemFont, 'Segoe UI', 'Roboto', Ubuntu, Liberation Sans, sans-serif" font-size="14" transform="translate(606.3633 349.55)">Font</text><text fill="#fff" transform="translate(634.377 349.55)"/><text fill="#fff" font-family="-apple-system, BlinkMacSystemFont, 'Segoe UI', 'Roboto', Ubuntu, Liberation Sans, sans-serif" font-size="13" transform="translate(593.4117 366.35)">Properties</text><circle cx="756" cy="90.3" fill="#83af40" r="34.1" stroke="#000"/><text fill="#fff" font-family="-apple-system, BlinkMacSystemFont, 'Segoe UI', 'Roboto', Ubuntu, Liberation Sans, sans-serif" font-size="14" transform="translate(726.7738 90)">Selectors</text><text fill="#fff" transform="translate(785.3114 90)"/><text fill="#fff" font-family="-apple-system, BlinkMacSystemFont, 'Segoe UI', 'Roboto', Ubuntu, Liberation Sans, sans-serif" font-size="14" transform="translate(750.2909 109.2)">L3</text><circle cx="643.1" cy="647.6" fill="#87871a" r="34.1" stroke="#000" stroke-miterlimit="10"/><text fill="#fff" font-family="-apple-system, BlinkMacSystemFont, 'Segoe UI', 'Roboto', Ubuntu, Liberation Sans, sans-serif" font-size="14" transform="translate(628 644)">Grid</text><text fill="#fff" font-family="-apple-system, BlinkMacSystemFont, 'Segoe UI', 'Roboto', Ubuntu, Liberation Sans, sans-serif" font-size="14" transform="translate(622 661)">Layout</text><circle cx="832.9" cy="124.5" fill="#83af40" r="34.1" stroke="#000"/><text fill="#fff" font-family="-apple-system, BlinkMacSystemFont, 'Segoe UI', 'Roboto', Ubuntu, Liberation Sans, sans-serif" font-size="14" transform="translate(811.3098 121)">Media</text><text fill="#fff" transform="translate(849.4406 121)"/><text fill="#fff" font-family="-apple-system, BlinkMacSystemFont, 'Segoe UI', 'Roboto', Ubuntu, Liberation Sans, sans-serif" font-size="14" transform="translate(807.8098 140.2)">Queries</text><circle cx="944" cy="256.8" fill="#87871a" r="34.1" stroke="#000"/><text fill="#fff" font-family="-apple-system, BlinkMacSystemFont, 'Segoe UI', 'Roboto', Ubuntu, Liberation Sans, sans-serif" font-size="11" transform="translate(914.3467 256.13)">Background</text><text fill="#fff" transform="translate(974.3896 256.13)"/><text fill="#fff" font-family="-apple-system, BlinkMacSystemFont, 'Segoe UI', 'Roboto', Ubuntu, Liberation Sans, sans-serif" font-size="14" transform="translate(913.77 272.93)">+ Borders</text><circle cx="965.2" cy="340.7" fill="#87871a" r="34.1" stroke="#000"/><text fill="#fff" font-family="-apple-system, BlinkMacSystemFont, 'Segoe UI', 'Roboto', Ubuntu, Liberation Sans, sans-serif" font-size="14" transform="translate(949.0999 336.58)">Multi</text><text fill="#fff" transform="translate(978.6584 336.58)"/><text fill="#fff" font-family="-apple-system, BlinkMacSystemFont, 'Segoe UI', 'Roboto', Ubuntu, Liberation Sans, sans-serif" font-size="14" transform="translate(941.7034 355.78)">Column</text><circle cx="807.5" cy="614.7" fill="#87871a" r="34.1" stroke="#000" stroke-miterlimit="10"/><text fill="#fff" font-family="-apple-system, BlinkMacSystemFont, 'Segoe UI', 'Roboto', Ubuntu, Liberation Sans, sans-serif" font-size="14" transform="translate(788.623 611.5)">Basic</text><text fill="#fff" transform="translate(822.8574 611.5)"/><text fill="#fff" font-family="-apple-system, BlinkMacSystemFont, 'Segoe UI', 'Roboto', Ubuntu, Liberation Sans, sans-serif" font-size="14" transform="translate(800.685 630.7)">UI</text><circle cx="902.3" cy="180.8" fill="#83af40" r="34.1" stroke="#000"/><text fill="#fff" font-family="-apple-system, BlinkMacSystemFont, 'Segoe UI', 'Roboto', Ubuntu, Liberation Sans, sans-serif" font-size="14" transform="translate(884.2692 175.667)">Style</text><text fill="#fff" transform="translate(915.3932 175.667)"/><text fill="#fff" font-family="-apple-system, BlinkMacSystemFont, 'Segoe UI', 'Roboto', Ubuntu, Liberation Sans, sans-serif" font-size="14" transform="translate(872.2072 192.467)">Attributes</text><circle cx="590.5" cy="91.6" fill="#83af40" r="34.1" stroke="#000"/><text fill="#fff" font-family="-apple-system, BlinkMacSystemFont, 'Segoe UI', 'Roboto', Ubuntu, Liberation Sans, sans-serif" font-size="14" transform="translate(572.0676 89.666)">Color</text><text fill="#fff" transform="translate(605.5227 89.666)"/><text fill="#fff" font-family="-apple-system, BlinkMacSystemFont, 'Segoe UI', 'Roboto', Ubuntu, Liberation Sans, sans-serif" font-size="14" transform="translate(582.9539 108.866)">L3</text><circle cx="435.5" cy="503.5" fill="#ed1e24" r="34.1" stroke="#000"/><text fill="#fff" font-family="-apple-system, BlinkMacSystemFont, 'Segoe UI', 'Roboto', Ubuntu, Liberation Sans, sans-serif" font-size="14" transform="translate(418.1267 510)">Ruby</text><path d="m902 545.1c12.1 14.5 10.1 36-4.4 48-14.5 12.1-36 10.1-48-4.4-12.1-14.5-10.1-36 4.4-48 14.4-12 35.9-10.1 48 4.4z" fill="#87871a" stroke="#000"/><text fill="#fff" font-family="-apple-system, BlinkMacSystemFont, 'Segoe UI', 'Roboto', Ubuntu, Liberation Sans, sans-serif" font-size="14" transform="translate(849.6196 564.5)">Flexible</text><text fill="#fff" transform="translate(897.8608 564.5)"/><text fill="#fff" font-family="-apple-system, BlinkMacSystemFont, 'Segoe UI', 'Roboto', Ubuntu, Liberation Sans, sans-serif" font-size="14" transform="translate(854.6679 583.7)">Layout</text><path d="m708 79.7c.1 18.8-15.2 34.2-34 34.2-18.8.1-34.1-15.2-34.2-34s15.2-34.2 34-34.2c18.9-.1 34.2 15.2 34.2 34z" fill="#83af40" stroke="#000"/><text fill="#fff" font-family="-apple-system, BlinkMacSystemFont, 'Segoe UI', 'Roboto', Ubuntu, Liberation Sans, sans-serif" font-size="14" transform="translate(653.5828 76.334)">Name</text><text fill="#fff" transform="translate(690.9276 76.334)"/><text fill="#fff" font-family="-apple-system, BlinkMacSystemFont, 'Segoe UI', 'Roboto', Ubuntu, Liberation Sans, sans-serif" font-size="14" transform="translate(652.0208 95.534)">spaces</text><circle cx="513.6" cy="125.7" fill="#83af40" r="34.1" stroke="#000"/><text fill="#fff" font-family="-apple-system, BlinkMacSystemFont, 'Segoe UI', 'Roboto', Ubuntu, Liberation Sans, sans-serif" font-size="14" transform="translate(488.1299 131.667)">MathML</text><path d="m997 424.4c.6 18.8-14.2 34.6-33.1 35.1-18.8.6-34.6-14.2-35.1-33.1-.6-18.8 14.2-34.6 33.1-35.1s34.6 14.3 35.1 33.1z" fill="#87871a" stroke="#000"/><text fill="#fff" font-family="-apple-system, BlinkMacSystemFont, 'Segoe UI', 'Roboto', Ubuntu, Liberation Sans, sans-serif" font-size="14" transform="translate(939.2288 429.95)">Speech</text><path d="m962.9 502.5c.6 18.8-14.2 34.6-33.1 35.1-18.8.6-34.6-14.2-35.1-33.1-.6-18.8 14.2-34.6 33.1-35.1s34.6 14.3 35.1 33.1z" fill="#87871a" stroke="#000"/><text fill="#fff" font-family="-apple-system, BlinkMacSystemFont, 'Segoe UI', 'Roboto', Ubuntu, Liberation Sans, sans-serif" font-size="14" transform="translate(905.8333 500.832)">Syntax</text><text fill="#fff" transform="translate(948.6331 500.832)"/><text fill="#fff" font-family="-apple-system, BlinkMacSystemFont, 'Segoe UI', 'Roboto', Ubuntu, Liberation Sans, sans-serif" font-size="14" transform="translate(921.3918 520.032)">L3</text><path d="m428.2 340.6c.7 18.8-14 34.6-32.8 35.3s-34.6-14-35.3-32.8 14-34.6 32.8-35.3 34.6 14 35.3 32.8z" fill="#ed1e24" stroke="#000"/><text fill="#fff" font-family="-apple-system, BlinkMacSystemFont, 'Segoe UI', 'Roboto', Ubuntu, Liberation Sans, sans-serif" font-size="12" transform="translate(363.3762 347)">Transforms</text><path d="m435.5 424.7c.4 18.8-14.5 34.4-33.4 34.8s-34.4-14.5-34.8-33.4c-.4-18.8 14.5-34.4 33.4-34.8 18.8-.4 34.4 14.6 34.8 33.4z" fill="#ed1e24" stroke="#000"/><text fill="#fff" font-family="-apple-system, BlinkMacSystemFont, 'Segoe UI', 'Roboto', Ubuntu, Liberation Sans, sans-serif" font-size="12" transform="translate(372.5602 431)">Transitions</text><path d="m530.9 342.7c.9 18.8-13.6 34.8-32.4 35.7s-34.8-13.6-35.7-32.4 13.6-34.8 32.4-35.7c18.9-1 34.8 13.6 35.7 32.4z" fill="#83af40" stroke="#000"/><text fill="#fff" font-family="-apple-system, BlinkMacSystemFont, 'Segoe UI', 'Roboto', Ubuntu, Liberation Sans, sans-serif" font-size="14" transform="translate(467.0358 349.23)">Selectors</text><path d="m571 272.8c0 18.8-15.2 34.1-34.1 34.2-18.8 0-34.1-15.2-34.2-34 0-18.8 15.2-34.1 34.1-34.2 18.8-.1 34.1 15.1 34.2 34z" fill="#83af40" stroke="#000"/><text fill="#fff" font-family="-apple-system, BlinkMacSystemFont, 'Segoe UI', 'Roboto', Ubuntu, Liberation Sans, sans-serif" font-size="14" transform="translate(515.8118 268.416)">Media</text><text fill="#fff" transform="translate(553.9426 268.416)"/><text fill="#fff" font-family="-apple-system, BlinkMacSystemFont, 'Segoe UI', 'Roboto', Ubuntu, Liberation Sans, sans-serif" font-size="14" transform="translate(518.1462 287.616)">Types</text><path d="m633 222.7c0 18.8-15.3 34.1-34.2 34-18.8 0-34.1-15.3-34-34.2 0-18.8 15.3-34.1 34.2-34 18.8.1 34.1 15.4 34 34.2z" fill="#83af40" stroke="#000"/><text fill="#fff" font-family="-apple-system, BlinkMacSystemFont, 'Segoe UI', 'Roboto', Ubuntu, Liberation Sans, sans-serif" font-size="14" transform="translate(585.6812 218.52)">Box</text><text fill="#fff" transform="translate(609.8052 218.52)"/><text fill="#fff" font-family="-apple-system, BlinkMacSystemFont, 'Segoe UI', 'Roboto', Ubuntu, Liberation Sans, sans-serif" font-size="14" transform="translate(580.6226 237.72)">Model</text><circle cx="488.7" cy="576.5" fill="#ed1e24" r="34.1" stroke="#000" stroke-linecap="round" stroke-miterlimit="10"/><text fill="#fff" font-family="-apple-system, BlinkMacSystemFont, 'Segoe UI', 'Roboto', Ubuntu, Liberation Sans, sans-serif" font-size="14" transform="translate(458 576)">Selectors</text><text fill="#fff" font-family="-apple-system, BlinkMacSystemFont, 'Segoe UI', 'Roboto', Ubuntu, Liberation Sans, sans-serif" font-size="14" transform="translate(479 595)">L4</text><circle cx="454.6" cy="185.6" fill="#ed1e24" r="34.1" stroke="#000"/><text fill="#fff" font-family="-apple-system, BlinkMacSystemFont, 'Segoe UI', 'Roboto', Ubuntu, Liberation Sans, sans-serif" font-size="13" transform="translate(423.1201 185)">Generated</text><text fill="#fff" transform="translate(486.2783 185)"/><text fill="#fff" font-family="-apple-system, BlinkMacSystemFont, 'Segoe UI', 'Roboto', Ubuntu, Liberation Sans, sans-serif" font-size="14" transform="translate(430.6269 201.8)">Content</text><circle cx="727.5" cy="642.8" fill="#87871a" r="34.1" stroke="#000" stroke-miterlimit="10"/><text fill="#fff" font-family="-apple-system, BlinkMacSystemFont, 'Segoe UI', 'Roboto', Ubuntu, Liberation Sans, sans-serif" font-size="14" transform="translate(701.4446 646.5)">Masking</text><path d="m595.8 622.2c.9 18.8-13.6 34.8-32.4 35.7s-34.8-13.6-35.7-32.4 13.6-34.8 32.4-35.7c18.8-1 34.8 13.5 35.7 32.4z" fill="#ed1e24" stroke="#000" stroke-miterlimit="10"/><text fill="#fff" font-family="-apple-system, BlinkMacSystemFont, 'Segoe UI', 'Roboto', Ubuntu, Liberation Sans, sans-serif" font-size="14" transform="translate(545.8766 619)">Web</text><text fill="#fff" transform="translate(574.4098 619)"/><text fill="#fff" font-family="-apple-system, BlinkMacSystemFont, 'Segoe UI', 'Roboto', Ubuntu, Liberation Sans, sans-serif" font-size="12" transform="translate(531.934 634.6)">Animations</text><g stroke="#000"><path d="m39.2 309.9c6.6 7.9 5.5 19.6-2.4 26.2s-19.6 5.5-26.2-2.4-5.5-19.6 2.4-26.2c7.8-6.6 19.6-5.5 26.2 2.4z" fill="#ed1e24"/><path d="m39.2 364.1c6.6 7.9 5.5 19.6-2.4 26.2s-19.6 5.5-26.2-2.4c-6.6-7.9-5.6-19.6 2.3-26.2s19.7-5.5 26.3 2.4z" fill="#a9a8a8" stroke-miterlimit="10"/><path d="m39.2 255.7c6.6 7.9 5.5 19.6-2.4 26.2s-19.6 5.5-26.2-2.4-5.5-19.6 2.4-26.2c7.8-6.5 19.6-5.5 26.2 2.4z" fill="#c3642f" stroke-miterlimit="10"/><path d="m39.2 201.6c6.6 7.9 5.5 19.6-2.4 26.2s-19.6 5.5-26.2-2.4-5.5-19.6 2.4-26.2c7.8-6.6 19.6-5.5 26.2 2.4z" fill="#87871a"/><path d="m39.2 147.4c6.6 7.9 5.5 19.6-2.4 26.2s-19.6 5.5-26.2-2.4-5.6-19.6 2.3-26.2 19.7-5.5 26.3 2.4z" fill="#83af40"/></g><text font-family="-apple-system, BlinkMacSystemFont, 'Segoe UI', 'Roboto', Ubuntu, Liberation Sans, sans-serif" font-size="20" transform="translate(53.2 164.88)">W3C Recommendation</text><text font-family="-apple-system, BlinkMacSystemFont, 'Segoe UI', 'Roboto', Ubuntu, Liberation Sans, sans-serif" font-size="20" transform="translate(53.03 219.53)">Candidate Recommondation</text><text font-family="-apple-system, BlinkMacSystemFont, 'Segoe UI', 'Roboto',  Liberation Sans, sans-serif" font-size="20" transform="translate(53.19 274.177)">Last Call</text><text font-family="-apple-system, BlinkMacSystemFont, 'Segoe UI', 'Roboto', Ubuntu, Liberation Sans, sans-serif" font-size="20" transform="translate(53.2 328.825)">Working Draft</text><text font-family="-apple-system, BlinkMacSystemFont, 'Segoe UI', 'Roboto', Ubuntu, Liberation Sans, sans-serif" font-size="20" transform="translate(53.23 383.472)">Obsolete or inactive</text><text font-family="-apple-system, BlinkMacSystemFont, 'Segoe UI', 'Roboto', Ubuntu, Liberation Sans,sans-serif" font-size="83.6653" font-weight="bold" transform="translate(3.227 70.03)">CSS3</text><text font-family="-apple-system, BlinkMacSystemFont, 'Segoe UI', 'Roboto', Ubuntu, Liberation Sans, sans-serif" font-size="22.0306" transform="translate(4.936 106.677)">Taxonomy &amp; Status (September 2017)</text></svg>