<svg height="343.05521" width="270.95624" xmlns="http://www.w3.org/2000/svg" xmlns:xlink="http://www.w3.org/1999/xlink"><marker id="a" orient="auto" overflow="visible" refX="0" refY="0"><path d="m8.7185878 4.0337352-10.9258773-4.01772194 10.9258779-4.01772106c-1.7454984 2.3720609-1.7354408 5.6174519-.0000006 8.035443z" fill-rule="evenodd" stroke-linejoin="round" stroke-width=".625" transform="scale(.6)"/></marker><marker id="b" orient="auto" overflow="visible" refX="0" refY="0"><path d="m8.7185878 4.0337352-10.9258773-4.01772194 10.9258779-4.01772106c-1.7454984 2.3720609-1.7354408 5.6174519-.0000006 8.035443z" fill-rule="evenodd" stroke-linejoin="round" stroke-width=".625" transform="scale(-.6)"/></marker><g transform="translate(-2.702431 -30.379936)"><path d="m-88.242416 199.35966h71.314697v71.314697h-71.314697z" fill="none" stroke="#000" stroke-width="1.560009" transform="matrix(.80730846 -.59012969 .80730846 .59012969 0 0)"/><rect fill="none" height="48.852272" rx="25.443893" ry="24.426136" stroke="#000" stroke-width="1.781072" width="135.36151" x="79.598099" y="298.75577"/><path d="m90.28453 169.50081h-46.816761v155.20775h37.656958" fill="none" marker-start="url(#a)" stroke="#000" stroke-width="1.781072"/><path d="m447.14287 194.50504c0 29.58668-23.98474 53.57143-53.57143 53.57143-29.58668 0-53.57143-23.98475-53.57143-53.57143 0-29.58669 23.98475-53.57143 53.57143-53.57143 29.58669 0 53.57143 23.98474 53.57143 53.57143z" fill="#fff" stroke="#000" stroke-width="4.464286" transform="matrix(.3989602288 0 0 .3989602288 94.37591091781 273.57042106325)"/><path d="m447.14287 194.50504c0 29.58668-23.98474 53.57143-53.57143 53.57143-29.58668 0-53.57143-23.98475-53.57143-53.57143 0-29.58669 23.98475-53.57143 53.57143-53.57143 29.58669 0 53.57143 23.98474 53.57143 53.57143z" transform="matrix(.2992201716 0 0 .2992201716 133.63074914066 292.97036445108)"/><path d="m447.14287 194.50504c0 29.58668-23.98474 53.57143-53.57143 53.57143-29.58668 0-53.57143-23.98475-53.57143-53.57143 0-29.58669 23.98475-53.57143 53.57143-53.57143 29.58669 0 53.57143 23.98474 53.57143 53.57143z" transform="matrix(.29922017 0 0 .29922017 29.514342 14.635379)"/><path d="m147.26174 70.227704v54.694306" fill="none" marker-end="url(#b)" stroke="#000" stroke-width="1.781072"/><path d="m147.26174 210.16911v86.75361" fill="none" marker-end="url(#b)" stroke="#000" stroke-width="1.781072"/><path d="m251.5988 327.25295.50888-158.26101h-47.32564" fill="none" marker-start="url(#a)" stroke="#000" stroke-width="1.781072"/><g font-family="Liberation Sans" letter-spacing="0" word-spacing="0"><text font-size="14.91969" x="8.702431" xml:space="preserve" y="47.190884"><tspan x="8.702431" y="47.190884">While (A = TRUE) Do</tspan><tspan x="8.702431" y="65.8405">    B</tspan><tspan x="8.702431" y="84.490112">End While</tspan></text><text font-size="14.248579" x="142.31828" y="328.08334"><tspan x="142.31828" y="328.08334">B</tspan></text><text font-size="14.248579" x="142.52701" y="174.62396"><tspan x="142.52701" y="174.62396">A</tspan></text><text font-size="14.248579" x="97.344177" y="257.46564"><tspan x="97.344177" y="257.46564">TRUE</tspan></text><text font-size="14.248579" x="210.31505" y="162.88541"><tspan x="210.31505" y="162.88541">FALSE</tspan></text></g></g></svg>