<svg height="512pt" preserveAspectRatio="xMidYMid meet" viewBox="0 0 512 512" width="512pt" xmlns="http://www.w3.org/2000/svg"><g transform="matrix(.1 0 0 -.1 0 512)"><path d="m2985 5104c-60-21-110-67-139-127l-25-52-3-580-3-580 22-41c25-47 66-85 127-117 36-19 59-22 204-25l162-4v-187c0-183 1-188 23-209 29-27 86-29 115-4 11 9 89 103 173 207l151 190 522 5c502 5 523 6 566 26 56 26 107 76 131 129 17 37 19 80 19 615v575l-24 51c-27 59-82 107-145 129-65 22-1814 21-1876-1zm1834-169c16-8 31-22 35-30 3-9 6-260 6-558v-541l-22-23-21-23-531-1c-292-1-542-4-556-8-16-4-63-53-125-130l-100-124-5 104c-3 57-9 110-14 118-21 33-73 41-265 41h-190l-20 26c-21 26-21 35-21 568 1 568 0 558 45 584 15 8 254 11 888 12 743 0 872-2 896-15z"/><path d="m3330 4695v-85h595 595v85 85h-595-595z"/><path d="m3330 4355v-85h595 595v85 85h-595-595z"/><path d="m3330 4010v-90h595 595v90 90h-595-595z"/><path d="m289 4433c-51-8-132-66-164-117l-30-49-3-2034-2-2034 21-50c12-28 39-65 62-84 82-70-103-65 2302-65 2388 0 2219-4 2297 60 20 17 48 53 62 82l26 52v1607 1607l-75 7c-41 3-79 4-85 0-7-4-10-509-10-1596v-1591l-29-29-29-29h-435-434l-5 198c-5 181-7 203-32 277-53 155-162 282-298 349-46 23-172 63-340 109l-268 72v61 62l74 73c128 129 176 252 176 456v122l29 16c60 31 61 34 61 326v267l118 46c64 25 168 65 231 89s125 54 138 67c28 27 31 78 5 109-11 14-207 94-589 241-315 121-579 220-587 220-9 0-273-99-588-220-375-144-579-227-590-241-16-19-18-46-18-232v-212l-115-115-115-115 60-60 60-59 55 54 55 54v-67-67h85 85v67 67l58-57 58-57 59 60 60 60-118 118-117 117v133 132l63-24c34-13 110-42 170-65l107-43v-267c0-292 1-295 61-326l29-16v-127c0-79 6-148 15-182 30-114 101-226 191-300 42-34 43-36 43-100l1-65-272-74c-327-88-380-112-488-220-139-140-180-265-180-546v-165h-431c-440 0-457 1-486 39-10 12-12 391-13 1694v1677h1195 1195v90 90h-1196-1195l3 231c3 229 3 231 27 250 23 18 56 19 1192 19h1170l-3 88-3 87-1165 1c-641 1-1177-1-1191-3zm2620-1450c304-117 428-169 415-174-11-4-201-77-424-163-223-87-412-158-420-158-8-1-207 72-443 163-305 117-422 166-410 172 24 10 837 325 843 326 3 1 200-74 439-166zm-630-612c101-39 189-71 196-71s95 32 196 71 212 81 247 94l62 24v-194-195l-37-16c-146-63-356-114-466-114-115 0-284 40-434 102l-73 30v193 194l63-24c34-13 145-55 246-94zm-163-512c75-26 219-56 309-64 109-10 319 27 462 82 10 4 13-11 13-64 0-185-89-330-250-407-61-29-73-31-175-31-103 0-114 2-176 31-159 76-249 220-249 400 0 41 2 74 3 74 2 0 30-9 63-21zm359-662c50 0 106 5 126 10l36 11 5-70c3-38 11-75 17-81s11-14 11-18-44-44-97-88c-81-68-99-79-112-68-70 54-181 151-181 157 0 5 5 12 10 15 6 3 10 37 10 74s3 70 6 73 22 1 42-4c20-6 78-11 127-11zm-213-367c185-153 204-164 251-138 12 6 74 54 137 107s138 115 167 139l52 43 222-61c123-33 245-73 271-87 67-37 143-121 181-200l32-68 3-197 4-198h-126-126l-2 172-3 173h-85-85l-3-173-2-172h-675-675l-2 172-3 173h-85-85l-3-173-2-172h-125-125v180c0 156 3 189 21 242 35 104 120 205 211 249 33 16 430 132 471 138 5 0 90-66 189-149z"/><path d="m590 4010v-90h90 90v90 90h-90-90z"/><path d="m930 4010v-90h90 90v90 90h-90-90z"/><path d="m1280 4010v-90h90 90v90 90h-90-90z"/></g></svg>