<svg xmlns="http://www.w3.org/2000/svg" viewBox="0 0 980 600" font-family="system-ui, sans-serif" font-size="12">
<style>
.t{fill:#fff;stroke:#5b6b7c;stroke-width:1.2} .h{fill:#3b5bdb} .tn{fill:#fff;font-weight:700;text-anchor:middle;font-size:13px}
.c{fill:#222} .pk{fill:#222;font-weight:700} .fk{fill:#3b5bdb;font-style:italic}
.l{fill:none;stroke:#3b5bdb;stroke-width:1.6}
</style>
<defs><marker id="m" viewBox="0 0 10 10" refX="9" refY="5" markerWidth="8" markerHeight="8" orient="auto-start-reverse"><path d="M0,0 L10,5 L0,10 z" fill="#3b5bdb"/></marker></defs>
<rect width="980" height="600" fill="#f7f8fa"/>
<path d="M370,101 C320,101 320,65 270,65" class="l" marker-end="url(#m)"/><path d="M610,155 C660,155 660,65 710,65" class="l" marker-end="url(#m)"/><path d="M270,353 C320,353 320,65 370,65" class="l" marker-end="url(#m)"/><path d="M490.0,300 L490.0,172" class="l" marker-end="url(#m)"/><path d="M710,335 C660,335 660,65 610,65" class="l" marker-end="url(#m)"/><path d="M150.0,470 L150.0,424" class="l" marker-end="url(#m)"/>
<rect x="30" y="30" width="240" height="196" rx="6" class="t"/><rect x="30" y="30" width="240" height="26" rx="6" class="h"/><rect x="30" y="50" width="240" height="6" class="h"/><text x="150.0" y="48" class="tn">permis_conduire</text><text x="40" y="70" class="pk">id (PK)</text><text x="40" y="88" class="c">age</text><text x="40" y="106" class="c">taille</text><text x="40" y="124" class="c">couleur_yeux</text><text x="40" y="142" class="c">couleur_cheveux</text><text x="40" y="160" class="c">genre</text><text x="40" y="178" class="c">immatriculation</text><text x="40" y="196" class="c">marque_voiture</text><text x="40" y="214" class="c">modele_voiture</text><rect x="370" y="30" width="240" height="142" rx="6" class="t"/><rect x="370" y="30" width="240" height="26" rx="6" class="h"/><rect x="370" y="50" width="240" height="6" class="h"/><text x="490.0" y="48" class="tn">personne</text><text x="380" y="70" class="pk">id (PK)</text><text x="380" y="88" class="c">nom</text><text x="380" y="106" class="fk">permis_id (FK)</text><text x="380" y="124" class="c">numero_rue</text><text x="380" y="142" class="c">nom_rue</text><text x="380" y="160" class="fk">nir (FK)</text><rect x="710" y="30" width="240" height="70" rx="6" class="t"/><rect x="710" y="30" width="240" height="26" rx="6" class="h"/><rect x="710" y="50" width="240" height="6" class="h"/><text x="830.0" y="48" class="tn">revenu</text><text x="720" y="70" class="pk">nir (PK)</text><text x="720" y="88" class="c">revenu_annuel</text><rect x="30" y="300" width="240" height="124" rx="6" class="t"/><rect x="30" y="300" width="240" height="26" rx="6" class="h"/><rect x="30" y="320" width="240" height="6" class="h"/><text x="150.0" y="318" class="tn">salle_sport_membre</text><text x="40" y="340" class="pk">id (PK)</text><text x="40" y="358" class="fk">personne_id (FK)</text><text x="40" y="376" class="c">nom</text><text x="40" y="394" class="c">date_debut_abonnement</text><text x="40" y="412" class="c">statut_abonnement</text><rect x="370" y="300" width="240" height="70" rx="6" class="t"/><rect x="370" y="300" width="240" height="26" rx="6" class="h"/><rect x="370" y="320" width="240" height="6" class="h"/><text x="490.0" y="318" class="tn">interrogatoire</text><text x="380" y="340" class="fk">personne_id (FK)</text><text x="380" y="358" class="c">transcription</text><rect x="710" y="300" width="240" height="106" rx="6" class="t"/><rect x="710" y="300" width="240" height="26" rx="6" class="h"/><rect x="710" y="320" width="240" height="6" class="h"/><text x="830.0" y="318" class="tn">evenement_participation</text><text x="720" y="340" class="fk">personne_id (FK)</text><text x="720" y="358" class="c">evenement_id</text><text x="720" y="376" class="c">nom_evenement</text><text x="720" y="394" class="c">date</text><rect x="30" y="470" width="240" height="106" rx="6" class="t"/><rect x="30" y="470" width="240" height="26" rx="6" class="h"/><rect x="30" y="490" width="240" height="6" class="h"/><text x="150.0" y="488" class="tn">salle_sport_passage</text><text x="40" y="510" class="fk">membre_id (FK)</text><text x="40" y="528" class="c">date_passage</text><text x="40" y="546" class="c">heure_entree</text><text x="40" y="564" class="c">heure_sortie</text><rect x="370" y="470" width="240" height="106" rx="6" class="t"/><rect x="370" y="470" width="240" height="26" rx="6" class="h"/><rect x="370" y="490" width="240" height="6" class="h"/><text x="490.0" y="488" class="tn">rapport_police</text><text x="380" y="510" class="c">date</text><text x="380" y="528" class="c">type</text><text x="380" y="546" class="c">description</text><text x="380" y="564" class="c">ville</text><rect x="710" y="470" width="240" height="70" rx="6" class="t"/><rect x="710" y="470" width="240" height="26" rx="6" class="h"/><rect x="710" y="490" width="240" height="6" class="h"/><text x="830.0" y="488" class="tn">solution</text><text x="720" y="510" class="c">utilisateur</text><text x="720" y="528" class="c">valeur</text>
<text x="490" y="590" text-anchor="middle" fill="#5b6b7c">Les flèches partent de la clé étrangère (FK, en bleu) vers la clé primaire (PK, en gras). rapport_police et solution ne sont reliées à rien.</text>
</svg>