<?xml version="1.0" standalone="no"?>
<!DOCTYPE svg PUBLIC "-//W3C//DTD SVG 20010904//EN"
 "http://www.w3.org/TR/2001/REC-SVG-20010904/DTD/svg10.dtd">
<svg version="1.0" xmlns="http://www.w3.org/2000/svg"
 width="512.000000pt" height="512.000000pt" viewBox="0 0 512.000000 512.000000"
 preserveAspectRatio="xMidYMid meet">
<metadata>
Created by potrace 1.11, written by Peter Selinger 2001-2013
</metadata>
<g transform="translate(0.000000,512.000000) scale(0.100000,-0.100000)"
fill="#000000" stroke="none">
<path d="M2985 5104 c-60 -21 -110 -67 -139 -127 l-25 -52 -3 -580 -3 -580 22
-41 c25 -47 66 -85 127 -117 36 -19 59 -22 204 -25 l162 -4 0 -187 c0 -183 1
-188 23 -209 29 -27 86 -29 115 -4 11 9 89 103 173 207 l151 190 522 5 c502 5
523 6 566 26 56 26 107 76 131 129 17 37 19 80 19 615 l0 575 -24 51 c-27 59
-82 107 -145 129 -65 22 -1814 21 -1876 -1z m1834 -169 c16 -8 31 -22 35 -30
3 -9 6 -260 6 -558 l0 -541 -22 -23 -21 -23 -531 -1 c-292 -1 -542 -4 -556 -8
-16 -4 -63 -53 -125 -130 l-100 -124 -5 104 c-3 57 -9 110 -14 118 -21 33 -73
41 -265 41 l-190 0 -20 26 c-21 26 -21 35 -21 568 1 568 0 558 45 584 15 8
254 11 888 12 743 0 872 -2 896 -15z"/>
<path d="M3330 4695 l0 -85 595 0 595 0 0 85 0 85 -595 0 -595 0 0 -85z"/>
<path d="M3330 4355 l0 -85 595 0 595 0 0 85 0 85 -595 0 -595 0 0 -85z"/>
<path d="M3330 4010 l0 -90 595 0 595 0 0 90 0 90 -595 0 -595 0 0 -90z"/>
<path d="M289 4433 c-51 -8 -132 -66 -164 -117 l-30 -49 -3 -2034 -2 -2034 21
-50 c12 -28 39 -65 62 -84 82 -70 -103 -65 2302 -65 2388 0 2219 -4 2297 60
20 17 48 53 62 82 l26 52 0 1607 0 1607 -75 7 c-41 3 -79 4 -85 0 -7 -4 -10
-509 -10 -1596 l0 -1591 -29 -29 -29 -29 -435 0 -434 0 -5 198 c-5 181 -7 203
-32 277 -53 155 -162 282 -298 349 -46 23 -172 63 -340 109 l-268 72 0 61 0
62 74 73 c128 129 176 252 176 456 l0 122 29 16 c60 31 61 34 61 326 l0 267
118 46 c64 25 168 65 231 89 63 24 125 54 138 67 28 27 31 78 5 109 -11 14
-207 94 -589 241 -315 121 -579 220 -587 220 -9 0 -273 -99 -588 -220 -375
-144 -579 -227 -590 -241 -16 -19 -18 -46 -18 -232 l0 -212 -115 -115 -115
-115 60 -60 60 -59 55 54 55 54 0 -67 0 -67 85 0 85 0 0 67 0 67 58 -57 58
-57 59 60 60 60 -118 118 -117 117 0 133 0 132 63 -24 c34 -13 110 -42 170
-65 l107 -43 0 -267 c0 -292 1 -295 61 -326 l29 -16 0 -127 c0 -79 6 -148 15
-182 30 -114 101 -226 191 -300 42 -34 43 -36 43 -100 l1 -65 -272 -74 c-327
-88 -380 -112 -488 -220 -139 -140 -180 -265 -180 -546 l0 -165 -431 0 c-440
0 -457 1 -486 39 -10 12 -12 391 -13 1694 l0 1677 1195 0 1195 0 0 90 0 90
-1196 0 -1195 0 3 231 c3 229 3 231 27 250 23 18 56 19 1192 19 l1170 0 -3 88
-3 87 -1165 1 c-641 1 -1177 -1 -1191 -3z m2620 -1450 c304 -117 428 -169 415
-174 -11 -4 -201 -77 -424 -163 -223 -87 -412 -158 -420 -158 -8 -1 -207 72
-443 163 -305 117 -422 166 -410 172 24 10 837 325 843 326 3 1 200 -74 439
-166z m-630 -612 c101 -39 189 -71 196 -71 7 0 95 32 196 71 101 39 212 81
247 94 l62 24 0 -194 0 -195 -37 -16 c-146 -63 -356 -114 -466 -114 -115 0
-284 40 -434 102 l-73 30 0 193 0 194 63 -24 c34 -13 145 -55 246 -94z m-163
-512 c75 -26 219 -56 309 -64 109 -10 319 27 462 82 10 4 13 -11 13 -64 0
-185 -89 -330 -250 -407 -61 -29 -73 -31 -175 -31 -103 0 -114 2 -176 31 -159
76 -249 220 -249 400 0 41 2 74 3 74 2 0 30 -9 63 -21z m359 -662 c50 0 106 5
126 10 l36 11 5 -70 c3 -38 11 -75 17 -81 6 -6 11 -14 11 -18 0 -4 -44 -44
-97 -88 -81 -68 -99 -79 -112 -68 -70 54 -181 151 -181 157 0 5 5 12 10 15 6
3 10 37 10 74 0 37 3 70 6 73 3 3 22 1 42 -4 20 -6 78 -11 127 -11z m-213
-367 c185 -153 204 -164 251 -138 12 6 74 54 137 107 63 53 138 115 167 139
l52 43 222 -61 c123 -33 245 -73 271 -87 67 -37 143 -121 181 -200 l32 -68 3
-197 4 -198 -126 0 -126 0 -2 172 -3 173 -85 0 -85 0 -3 -173 -2 -172 -675 0
-675 0 -2 172 -3 173 -85 0 -85 0 -3 -173 -2 -172 -125 0 -125 0 0 180 c0 156
3 189 21 242 35 104 120 205 211 249 33 16 430 132 471 138 5 0 90 -66 189
-149z"/>
<path d="M590 4010 l0 -90 90 0 90 0 0 90 0 90 -90 0 -90 0 0 -90z"/>
<path d="M930 4010 l0 -90 90 0 90 0 0 90 0 90 -90 0 -90 0 0 -90z"/>
<path d="M1280 4010 l0 -90 90 0 90 0 0 90 0 90 -90 0 -90 0 0 -90z"/>
</g>
</svg>
