<svg height="202.56169" width="475.75613" xmlns="http://www.w3.org/2000/svg" xmlns:xlink="http://www.w3.org/1999/xlink"><linearGradient id="a"><stop offset="0" stop-color="#cecedb"/><stop offset=".191" stop-color="#fff"/><stop offset=".4831" stop-color="#cecedb"/><stop offset=".7528" stop-color="#b3b3c6"/><stop offset=".9944" stop-color="#828282"/></linearGradient><linearGradient id="b" gradientUnits="userSpaceOnUse" x1="23.7183" x2="23.7183" xlink:href="#a" y1="41.1143" y2="44.644501"/><linearGradient id="c" gradientTransform="matrix(0 -1 1 0 -842.8975 329.1035)" gradientUnits="userSpaceOnUse" x1="291.56839" x2="291.56839" xlink:href="#a" y1="864.85059" y2="868.38177"/><linearGradient id="d" gradientUnits="userSpaceOnUse" x1="23.7192" x2="23.7192" y1="46.441399" y2="39.691399"><stop offset="0" stop-color="#cf0000"/><stop offset=".9944" stop-color="#ff6d00"/></linearGradient><linearGradient id="e" gradientUnits="userSpaceOnUse" x1="23.7183" x2="23.7183" y1="37.066399" y2="49.629101"><stop offset="0" stop-color="#fff030"/><stop offset=".9944" stop-color="#ffae00"/></linearGradient><linearGradient id="f" gradientUnits="userSpaceOnUse" x1="23.7183" x2="23.7183" y1="41.003899" y2="43.816299"><stop offset="0" stop-color="#fff"/><stop offset=".4971" stop-color="#ffe3a9"/><stop offset=".9944" stop-color="#ffc957"/></linearGradient><linearGradient id="g" gradientUnits="userSpaceOnUse" x1="51.73294136939" x2="5.42945053864" y1="10.1897162864" y2="-36.11377708232"><stop offset="0" stop-color="#585868"/><stop offset="1" stop-color="#494949"/></linearGradient><linearGradient id="h" gradientUnits="userSpaceOnUse" x1="8.3136001012" x2="54.61125867597" y1="-33.23089650496" y2="13.06676206981"><stop offset="0" stop-color="#7d7d99"/><stop offset="1" stop-color="#494949"/></linearGradient><radialGradient id="i" cx="39.22558125" cy="28.364137125" gradientUnits="userSpaceOnUse" r="26.078925"><stop offset="0" stop-color="#fff"/><stop offset=".2809" stop-color="#cecedb"/><stop offset=".6404" stop-color="#bdbdcf"/><stop offset="1" stop-color="#9a9ab1"/></radialGradient><linearGradient id="j" gradientUnits="userSpaceOnUse" x1="23.7192" x2="23.7192" y1="13.2217" y2="3.3634"><stop offset="0" stop-color="#cecedb"/><stop offset="1" stop-color="#eee"/></linearGradient><linearGradient id="k" gradientUnits="userSpaceOnUse" x1="15.043" x2="22.1714" y1="16.6919" y2="38.241199"><stop offset="0" stop-color="#fff"/><stop offset="1" stop-color="#cecedb"/></linearGradient><linearGradient id="l" gradientUnits="userSpaceOnUse" x1="16.6357" x2="17.7829" y1="35.196301" y2="28.477301"><stop offset="0" stop-color="#fff"/><stop offset="1" stop-color="#bdbdcf"/></linearGradient><linearGradient id="m"><stop offset="0" stop-color="#7d7d99"/><stop offset="1" stop-color="#cecedb"/></linearGradient><linearGradient id="n" gradientUnits="userSpaceOnUse" x1="13.8062" x2="20.0928" xlink:href="#m" y1="16.355499" y2="16.355499"/><linearGradient id="o" gradientUnits="userSpaceOnUse" x1="13.8062" x2="20.0928" xlink:href="#m" y1="18.784201" y2="18.784201"/><linearGradient id="p" gradientUnits="userSpaceOnUse" x1="14.6323" x2="18.6686" xlink:href="#m" y1="18.8965" y2="22.9328"/><linearGradient id="q" gradientTransform="matrix(.9659 .2588 0 1.0353 -242.0508 -531.0422)" gradientUnits="userSpaceOnUse" x1="271.31839" x2="271.31839" y1="478.91599" y2="477.5929"><stop offset=".0056" stop-color="#fff"/><stop offset="1" stop-color="#b6b6b6"/></linearGradient><linearGradient id="r" gradientTransform="matrix(.9659 .2588 0 1.0353 -242.0508 -531.0422)" gradientUnits="userSpaceOnUse" x1="271.31839" x2="271.31839" y1="478.8555" y2="477.71579"><stop offset=".0056" stop-color="#b6b6b6"/><stop offset=".3669" stop-color="#9d9d9d"/><stop offset=".7432" stop-color="#898989"/><stop offset="1" stop-color="#828282"/></linearGradient><linearGradient id="s" gradientTransform="matrix(-.9659 -.2588 0 .7765 -840.3521 -606.8475)" gradientUnits="userSpaceOnUse" x1="-890.74323" x2="-890.74323" y1="529.26172" y2="528.0791"><stop offset=".0056" stop-color="#9f6"/><stop offset=".2358" stop-color="#68de56"/><stop offset=".4783" stop-color="#3bc147"/><stop offset=".6954" stop-color="#1bab3c"/><stop offset=".8767" stop-color="#079e35"/><stop offset="1" stop-color="#093"/></linearGradient><linearGradient id="t" gradientTransform="matrix(.9659 .2588 0 1.0353 -242.0508 -531.0422)" gradientUnits="userSpaceOnUse" x1="271.30661" x2="271.3389" y1="478.5166" y2="477.64651"><stop offset=".0056" stop-color="#3c3"/><stop offset=".3585" stop-color="#1bb433"/><stop offset=".7397" stop-color="#07a033"/><stop offset="1" stop-color="#093"/></linearGradient><linearGradient id="u" gradientTransform="matrix(.9659 .2588 0 1.0353 -242.0508 -531.0422)" gradientUnits="userSpaceOnUse" x1="271.31931" x2="271.31931" y1="477.77731" y2="478.3468"><stop offset="0" stop-color="#fff"/><stop offset=".0907" stop-color="#e8f7d6"/><stop offset=".2274" stop-color="#c8ed9e"/><stop offset=".3649" stop-color="#ade46d"/><stop offset=".5002" stop-color="#97dc46"/><stop offset=".6328" stop-color="#85d627"/><stop offset=".7621" stop-color="#79d212"/><stop offset=".8863" stop-color="#72d004"/><stop offset="1" stop-color="#6fcf00"/></linearGradient><linearGradient id="v"><stop offset="0" stop-color="#9e9e9e"/><stop offset="1" stop-color="#616161"/></linearGradient><linearGradient id="w" gradientUnits="userSpaceOnUse" x1="13.0835" x2="54.0835" xlink:href="#v" y1="60.5835" y2="60.5835"/><linearGradient id="x" gradientUnits="userSpaceOnUse" x1="29.606001" x2="37.811001" xlink:href="#v" y1="58.497601" y2="58.497601"/><linearGradient id="y" gradientUnits="userSpaceOnUse" x1="3.792" x2="65.666496" xlink:href="#v" y1="49.8335" y2="49.8335"/><linearGradient id="z" gradientUnits="userSpaceOnUse" x1="6.2192" x2="64.280701" y1="-2.2808" y2="55.780701"><stop offset="0" stop-color="#636363"/><stop offset="1"/></linearGradient><linearGradient id="A" gradientUnits="userSpaceOnUse" x1="59.3442" x2="11.1574" y1="50.8433" y2="2.6564"><stop offset="0" stop-color="#fff"/><stop offset="1" stop-color="#adadad"/></linearGradient><g transform="translate(-118.49051 -269.04602)"><path d="m335.46591 429.74747-188.07468 36.658" fill="none" stroke="#000" stroke-width="1.318171"/><path d="m348.23377 377.79808-188.07467-36.658" fill="none" stroke="#000" stroke-width="1.318171"/><g transform="matrix(.70791819445 0 0 .61942339567 114.31380112683 318.23120006625)"><g stroke="#000"><path d="m8.5 24.322c0 2.162.735 5.537 1.635 7.502l9.61 21.012c.899 1.966 2.971 5.734 3.004 3.573l-.995-28.158c.034-2.162-.866-1.506-2-3.345l-7.883-17.54c-1.134-1.84-3.371 1.043-3.371 3.203z" fill="url(#w)"/><path d="m19.987 25.113c1.125 1.846 3.814 3.355 5.976 3.355h88.84c2.167 0 5.03.398 3.182-.716l-32.556-19.305c-1.853-1.113-5.136-2.02-7.297-2.013l-65.485.195c-2.161.006-3.008 1.521-1.882 3.366z" fill="url(#x)"/><path d="m120.571 30.838c0-1.543-1.263-2.806-2.806-2.806h-94.016c-1.543 0-2.807 1.263-2.807 2.806v23.856c0 1.543 1.263 2.806 2.807 2.806h94.017c1.543 0 2.806-1.263 2.806-2.806v-23.856z" fill="url(#y)"/><path d="m41.523 35.283c0-1.546-1.263-2.808-2.807-2.808h-10.29c-1.543 0-2.807 1.262-2.807 2.808v6.08c0 1.543 1.263 2.806 2.807 2.806h10.29c1.544 0 2.807-1.263 2.807-2.806z" fill="url(#z)" transform="translate(0 .000004)"/><path d="m62.104 35.283c0-1.546-1.262-2.808-2.807-2.808h-10.29c-1.544 0-2.807 1.262-2.807 2.808v6.08c0 1.543 1.263 2.806 2.807 2.806h10.29c1.545 0 2.807-1.263 2.807-2.806z" fill="url(#A)"/></g><path d="m58.5 19.25c19-1 58.385 7.699 58.385 7.699l-30.456-18.502c-1.853-1.113-5.136-2.02-7.297-2.013l-65.485.195c-2.161.006-3.008 1.521-1.882 3.366 0 0 27.735 10.255 46.735 9.255z" fill="#fff" opacity=".25"/></g><g transform="matrix(.888051489 0 0 .85986980197 126.0474475141 275.78982773714)"><g stroke="#000"><path d="m54.083 60.583c0-2.209-9.178-4-20.5-4s-20.5 1.791-20.5 4 9.178 4 20.5 4 20.5-1.791 20.5-4z" fill="url(#w)" stroke="none"/><path d="m54.083 60.583c0-2.209-9.178-4-20.5-4s-20.5 1.791-20.5 4 9.178 4 20.5 4 20.5-1.791 20.5-4z" fill="none"/></g><g stroke="#000"><path d="m37.811 55.411c-2.718-.431-5.487-.431-8.205 0 .326 2.058.651 4.115.978 6.173 2.07-.328 4.18-.328 6.25 0 .326-2.058.651-4.116.977-6.173z" fill="url(#x)" stroke="none"/><path d="m37.811 55.411c-2.718-.431-5.487-.431-8.205 0 .326 2.058.651 4.115.978 6.173 2.07-.328 4.18-.328 6.25 0 .326-2.058.651-4.116.977-6.173z" fill="none"/></g><g stroke="#000"><path d="m3.792 47.208h61.875s-7.499 11.25-32.5 11.25c-25 0-29.375-11.25-29.375-11.25zm0-6s4.375 11.25 29.375 11.25 32.5-11.25 32.5-11.25" fill="url(#y)" stroke="none"/><path d="m3.792 47.208h61.875s-7.499 11.25-32.5 11.25c-25 0-29.375-11.25-29.375-11.25zm0-6s4.375 11.25 29.375 11.25 32.5-11.25 32.5-11.25" fill="none"/></g><g stroke="#000"><path d="m70 48c0 2.75-2.25 5-5 5h-59.5c-2.75 0-5-2.25-5-5v-42.5c0-2.75 2.25-5 5-5h59.5c2.75 0 5 2.25 5 5zm-5.625-38.25c0-2.75-2.25-5-5-5h-48.249c-2.75 0-5 2.25-5 5v34c0 2.75 2.25 5 5 5h48.248c2.75 0 5-2.25 5-5v-34z" fill="url(#z)" stroke="none"/><path d="m70 48c0 2.75-2.25 5-5 5h-59.5c-2.75 0-5-2.25-5-5v-42.5c0-2.75 2.25-5 5-5h59.5c2.75 0 5 2.25 5 5zm-5.625-38.25c0-2.75-2.25-5-5-5h-48.249c-2.75 0-5 2.25-5 5v34c0 2.75 2.25 5 5 5h48.248c2.75 0 5-2.25 5-5v-34z" fill="none"/></g><g stroke="#000"><path d="m64.375 43.75c0 2.75-2.25 5-5 5h-48.249c-2.75 0-5-2.25-5-5v-34c0-2.75 2.25-5 5-5h48.248c2.75 0 5 2.25 5 5v34z" fill="url(#A)" stroke="none"/><path d="m64.375 43.75c0 2.75-2.25 5-5 5h-48.249c-2.75 0-5-2.25-5-5v-34c0-2.75 2.25-5 5-5h48.248c2.75 0 5 2.25 5 5v34z" fill="none"/></g><path d="m70 4.896c0 2.417-.861 6.474-1.914 9.015 0 0-5.336 12.882-32.835 12.882-27.5 0-33.149 16.721-33.149 16.721-.882 2.605-1.602 2.486-1.602-.264v-37.75c0-2.75 2.25-5 5-5h59.5c2.75 0 5 1.978 5 4.396z" fill="#fff" opacity=".3"/></g><g transform="matrix(.70791819445 0 0 .61942339567 114.31379635011 435.65976365849)"><g stroke="#000"><path d="m8.5 24.322c0 2.162.735 5.537 1.635 7.502l9.61 21.012c.899 1.966 2.971 5.734 3.004 3.573l-.995-28.158c.034-2.162-.866-1.506-2-3.345l-7.883-17.54c-1.134-1.84-3.371 1.043-3.371 3.203z" fill="url(#w)"/><path d="m19.987 25.113c1.125 1.846 3.814 3.355 5.976 3.355h88.84c2.167 0 5.03.398 3.182-.716l-32.556-19.305c-1.853-1.113-5.136-2.02-7.297-2.013l-65.485.195c-2.161.006-3.008 1.521-1.882 3.366z" fill="url(#x)"/><path d="m120.571 30.838c0-1.543-1.263-2.806-2.806-2.806h-94.016c-1.543 0-2.807 1.263-2.807 2.806v23.856c0 1.543 1.263 2.806 2.807 2.806h94.017c1.543 0 2.806-1.263 2.806-2.806v-23.856z" fill="url(#y)"/><path d="m41.523 35.283c0-1.546-1.263-2.808-2.807-2.808h-10.29c-1.543 0-2.807 1.262-2.807 2.808v6.08c0 1.543 1.263 2.806 2.807 2.806h10.29c1.544 0 2.807-1.263 2.807-2.806z" fill="url(#z)" transform="translate(0 .000004)"/><path d="m62.104 35.283c0-1.546-1.262-2.808-2.807-2.808h-10.29c-1.544 0-2.807 1.262-2.807 2.808v6.08c0 1.543 1.263 2.806 2.807 2.806h10.29c1.545 0 2.807-1.263 2.807-2.806z" fill="url(#A)"/></g><path d="m58.5 19.25c19-1 58.385 7.699 58.385 7.699l-30.456-18.502c-1.853-1.113-5.136-2.02-7.297-2.013l-65.485.195c-2.161.006-3.008 1.521-1.882 3.366 0 0 27.735 10.255 46.735 9.255z" fill="#fff" opacity=".25"/></g><g stroke="#000" transform="matrix(.888051489 0 0 .85986980197 126.04742788306 393.21839132938)"><path d="m54.083 60.583c0-2.209-9.178-4-20.5-4s-20.5 1.791-20.5 4 9.178 4 20.5 4 20.5-1.791 20.5-4z" fill="url(#w)" stroke="none"/><path d="m54.083 60.583c0-2.209-9.178-4-20.5-4s-20.5 1.791-20.5 4 9.178 4 20.5 4 20.5-1.791 20.5-4z" fill="none"/></g><g stroke="#000" transform="matrix(.888051489 0 0 .85986980197 126.04742788306 393.21839132938)"><path d="m37.811 55.411c-2.718-.431-5.487-.431-8.205 0 .326 2.058.651 4.115.978 6.173 2.07-.328 4.18-.328 6.25 0 .326-2.058.651-4.116.977-6.173z" fill="url(#x)" stroke="none"/><path d="m37.811 55.411c-2.718-.431-5.487-.431-8.205 0 .326 2.058.651 4.115.978 6.173 2.07-.328 4.18-.328 6.25 0 .326-2.058.651-4.116.977-6.173z" fill="none"/></g><g stroke="#000" transform="matrix(.888051489 0 0 .85986980197 126.04742788306 393.21839132938)"><path d="m3.792 47.208h61.875s-7.499 11.25-32.5 11.25c-25 0-29.375-11.25-29.375-11.25zm0-6s4.375 11.25 29.375 11.25 32.5-11.25 32.5-11.25" fill="url(#y)" stroke="none"/><path d="m3.792 47.208h61.875s-7.499 11.25-32.5 11.25c-25 0-29.375-11.25-29.375-11.25zm0-6s4.375 11.25 29.375 11.25 32.5-11.25 32.5-11.25" fill="none"/></g><g stroke="#000" transform="matrix(.888051489 0 0 .85986980197 126.04742788306 393.21839132938)"><path d="m70 48c0 2.75-2.25 5-5 5h-59.5c-2.75 0-5-2.25-5-5v-42.5c0-2.75 2.25-5 5-5h59.5c2.75 0 5 2.25 5 5zm-5.625-38.25c0-2.75-2.25-5-5-5h-48.249c-2.75 0-5 2.25-5 5v34c0 2.75 2.25 5 5 5h48.248c2.75 0 5-2.25 5-5v-34z" fill="url(#z)" stroke="none"/><path d="m70 48c0 2.75-2.25 5-5 5h-59.5c-2.75 0-5-2.25-5-5v-42.5c0-2.75 2.25-5 5-5h59.5c2.75 0 5 2.25 5 5zm-5.625-38.25c0-2.75-2.25-5-5-5h-48.249c-2.75 0-5 2.25-5 5v34c0 2.75 2.25 5 5 5h48.248c2.75 0 5-2.25 5-5v-34z" fill="none"/></g><g stroke="#000" transform="matrix(.888051489 0 0 .85986980197 126.04742788306 393.21839132938)"><path d="m64.375 43.75c0 2.75-2.25 5-5 5h-48.249c-2.75 0-5-2.25-5-5v-34c0-2.75 2.25-5 5-5h48.248c2.75 0 5 2.25 5 5v34z" fill="url(#A)" stroke="none"/><path d="m64.375 43.75c0 2.75-2.25 5-5 5h-48.249c-2.75 0-5-2.25-5-5v-34c0-2.75 2.25-5 5-5h48.248c2.75 0 5 2.25 5 5v34z" fill="none"/></g><path d="m70 4.896c0 2.417-.861 6.474-1.914 9.015 0 0-5.336 12.882-32.835 12.882-27.5 0-33.149 16.721-33.149 16.721-.882 2.605-1.602 2.486-1.602-.264v-37.75c0-2.75 2.25-5 5-5h59.5c2.75 0 5 1.978 5 4.396z" fill="#fff" opacity=".3" transform="matrix(.888051489 0 0 .85986980197 126.04742788306 393.21839132938)"/><g transform="matrix(1.25 0 0 1.25 508.25198 339.77733)"><g transform="translate(-12.8)"><path d="m428.80976 393.74272 98.48987-.50507" fill="none" stroke="#000" transform="matrix(.8 0 0 .8 -406.60158 -271.82186)"/><path d="m36.049 41.004h-.673-7.922c-.166-.287-.425-.514-.735-.64v-8.689h-4.875v.367 8.322c-.311.126-.569.353-.735.64h-8.594v4.875h8.441c.167.646.752 1.125 1.451 1.125h3.75c.698 0 1.284-.479 1.451-1.125h8.441z" opacity=".2"/><path d="m35.861 40.816h-.673-7.922c-.166-.287-.425-.514-.735-.64v-8.689h-4.875v.367 8.322c-.311.126-.569.353-.735.64h-8.594v4.875h8.441c.167.646.752 1.125 1.451 1.125h3.75c.698 0 1.284-.479 1.451-1.125h8.441z" opacity=".2"/><path d="m35.674 40.629h-.673-7.922c-.166-.287-.425-.514-.735-.64v-8.689h-4.875v.367 8.322c-.311.126-.569.353-.735.64h-8.594v4.875h8.441c.167.646.752 1.125 1.451 1.125h3.75c.698 0 1.284-.479 1.451-1.125h8.441z" opacity=".2"/><path d="m35.486 45.316v-4.875h-.673-22.861v4.875z" fill="#616161"/><path d="m12.624 41.113998h22.188999v3.53h-22.188999z" fill="url(#b)"/><path d="m26.156 31.112h-4.875v.367 12.48h4.875z" fill="#616161"/><path d="m21.952999 31.479h3.531v12.112h-3.531z" fill="url(#c)"/><path d="m27.094 44.941c0 .829-.672 1.5-1.5 1.5h-3.75c-.828 0-1.5-.671-1.5-1.5v-3.75c0-.828.672-1.5 1.5-1.5h3.75c.828 0 1.5.672 1.5 1.5z" fill="url(#d)"/><path d="m21.844 40.441c-.414 0-.75.337-.75.75v3.75c0 .414.336.75.75.75h3.75c.414 0 .75-.336.75-.75v-3.75c0-.413-.336-.75-.75-.75z" fill="url(#e)"/><path d="m21.844 41.004c-.104 0-.188.085-.188.188v3.75c0 .104.084.188.188.188h3.75c.104 0 .188-.084.188-.188v-3.75c0-.103-.084-.188-.188-.188z" fill="url(#f)"/></g><path d="m33.900149-54.883845-33.267716 21.798628c-.01015.01015-.106595.07106-.106595.07106.0203-.01269-.119284.09644-.119284.09644-.04822.03807-.04822.02792-.08883.0736l-.439069.51267c-.04061.04822-.02792.04061-.05837.09644l-.0025.0076c.0051-.01015-.106595.192886-.106595.192886-.0051.01269-.04568.104056-.04568.104056-.0025.01015-.08121.215728-.08121.215728l-.03299.104057c-.0051.0203-.0533.223341-.0533.223341s-.02284.126899-.02284.126899l-.0203.253797c0-.02284-.0051.0736-.0051.0736v57.84796c0 1.126858.718246 2.124281 1.789269 2.482135l24.778205 8.261093c.814689.269025 1.710592.126899 2.395844-.388309l33.039268-24.780718c.654797-.489829 1.045644-1.274061 1.045644-2.091288v-57.814966c0-.0203-.0051-.08883-.0076-.116747 0-.02538-.01269-.167506-.01269-.170044 0 0-.02538-.164968-.02538-.17512-.0025-.0025-.01523-.0939-.01523-.0939-.0076-.04061-.01015-.03807-.02284-.07868 0 0-.05584-.197961-.05837-.197961l-.0533-.147203c-.0076-.01776-.08375-.185271-.08375-.185271-.0025-.0051-.07868-.149741-.07868-.149741-.01015-.01777-.109133-.170044-.109133-.170044s-.09898-.13705-.101518-.13705l-.09898-.119285c-.01269-.01523-.03046-.03046-.04315-.04568l-.09644-.101519c-.01015-.0076-.126898-.109133-.126898-.109133-.03299-.02792-.144664-.116746-.144664-.116746-.01523-.01015-.149741-.09898-.149741-.09898-.02284-.01269-.182734-.106595-.182734-.106595-.02538-.01269-.164968-.07614-.164968-.07614-.02792-.01015-.170044-.06852-.170044-.06852.0025 0-.190347-.05837-.190347-.05837.0076.0025-.131975-.03553-.131975-.03553l-24.544712-5.276441c-.690328-.147202-1.395884-.01523-1.984693.368006zm-34.402188 23.49653" opacity=".2"/><path d="m61.541185-47.475509c0-.03807-.0025-.07868-.0076-.114209-.0051-.04315-.01015-.08375-.01777-.124361-.0051-.0203-.0051-.04061-.01015-.05837-.0025-.01523-.01015-.03299-.01523-.04822-.01015-.04061-.02284-.08122-.03553-.121823-.01015-.03553-.02284-.07106-.03553-.104057-.01523-.03807-.03299-.0736-.0533-.109132-.01777-.03299-.03299-.06599-.0533-.09898-.0203-.03299-.04315-.06599-.06345-.09898-.0203-.03046-.04315-.06091-.06345-.09137-.02538-.03046-.0533-.06091-.07868-.08883s-.05076-.05584-.07614-.08122c-.02792-.02792-.05837-.0533-.08883-.07614s-.05837-.05076-.08883-.07106c-.03299-.02284-.06345-.04315-.09644-.06345-.03553-.0203-.06599-.04315-.104056-.05837-.0076-.0051-.01523-.01015-.02538-.01523-.02792-.01269-.0533-.02284-.08122-.03299-.03807-.01523-.07106-.03299-.109133-.04568-.04061-.01523-.08122-.02538-.126898-.03807-.02538-.0076-.05076-.01777-.07614-.02284l-24.549785-5.276449c-.436531-.0939-.88829-.0076-1.261372.233494l-33.267716 21.79609c-.0076.0051-.01523.01269-.02284.01776-.01269.0076-.02538.01523-.03807.02284-.03046.0203-.05837.04822-.08883.07106-.01523.01269-.03553.02792-.05076.04061-.106594.09898-.203037.208113-.281714.327398-.01269.01777-.02284.04061-.03299.05837-.02538.04315-.05076.08629-.07106.129437-.01015.02538-.02284.05076-.03299.0736-.01777.04314-.03553.08375-.04822.126898-.0076.02538-.01777.0533-.02538.07868-.01269.04568-.0203.08883-.03046.134512-.0051.02538-.01015.0533-.01523.07868-.0076.05076-.01015.104057-.01269.154816 0 .0203-.0025.04061-.0025.06091v.01269 57.814966c0 .715708.459372 1.352739 1.137011 1.578618l24.778205 8.258556c.517746.172582 1.086251.08122 1.522782-.246183l33.041794-24.780735c.416227-.314709.664948-.807075.664948-1.329897v-57.814966c0-.0203-.0025-.03807-.0051-.05837z" opacity=".2"/><path d="m33.425549-55.358445-33.270254 21.796089c-.01015.01015-.106595.07106-.106595.07106.0203-.01269-.119285.09644-.119285.09644-.04822.03807-.04822.02792-.08883.0736l-.439069.51267c-.04061.04822-.02792.04061-.05837.09644l-.0025.0076c.0051-.01015-.106595.192886-.106595.192886-.0051.01269-.04568.104057-.04568.104057-.0025.01015-.08121.215727-.08121.215727l-.03299.104057c-.0051.0203-.0533.223342-.0533.223342s-.02284.126898-.02284.126898l-.0203.253797c0-.02284-.0051.0736-.0051.0736v57.84796c0 1.126859.718246 2.124281 1.78927 2.482135l24.778205 8.261094c.814688.269025 1.710592.126898 2.395844-.38831l33.039268-24.780718c.654796-.489828 1.045644-1.274061 1.045644-2.0912874v-57.8149656c0-.0203-.0051-.08883-.0076-.116747 0-.02538-.01269-.167506-.01269-.170044 0 0-.02538-.164968-.02538-.17512-.0025-.0025-.01523-.0939-.01523-.0939-.0051-.04061-.0076-.03807-.0203-.07868 0 0-.05584-.197962-.05837-.197962l-.0533-.147202c-.0076-.01777-.08375-.185272-.08375-.185272-.0025-.0051-.07868-.14974-.07868-.14974-.01015-.01777-.109133-.170044-.109133-.170044s-.09898-.137051-.101519-.137051l-.09898-.119284c-.01269-.01523-.03046-.03046-.04314-.04568l-.09644-.101518c-.01015-.0076-.126899-.109133-.126899-.109133-.03553-.02792-.147202-.116747-.147202-.116747-.01523-.01015-.14974-.09898-.14974-.09898-.02284-.01269-.182734-.106594-.182734-.106594-.02538-.01269-.164968-.07614-.164968-.07614-.02792-.01015-.170044-.06853-.170044-.06853.0025 0-.190348-.05837-.190348-.05837.0076.0025-.131974-.03553-.131974-.03553l-24.544712-5.27644c-.690328-.144664-1.393346-.01523-1.982155.370544zm-34.402186 23.49653" opacity=".2"/><path d="m61.064047-47.952648c0-.03807-.0025-.07868-.0076-.114208-.0051-.04315-.01015-.08375-.01777-.124361-.0051-.0203-.0051-.04061-.01015-.05837-.0025-.01523-.01015-.03299-.01523-.04822-.01015-.04061-.02284-.08122-.03553-.121822-.01269-.03553-.02538-.06853-.03807-.104057-.01523-.03807-.03299-.0736-.0533-.109133-.01777-.03299-.03299-.06599-.0533-.09898-.0203-.03299-.04314-.06599-.06345-.09898-.0203-.03045-.04314-.06091-.06345-.09137-.02538-.03045-.0533-.06091-.07868-.08883s-.05076-.05584-.07614-.08122c-.02792-.02792-.05837-.0533-.08883-.07614s-.05837-.05076-.08883-.07106c-.03299-.02284-.06345-.04315-.09644-.06345-.03299-.02538-.06599-.04568-.101519-.06345-.0076-.0051-.01523-.01015-.02538-.01523-.02792-.01269-.0533-.02284-.08122-.03299-.03807-.01523-.07106-.03299-.109132-.04568-.04061-.01523-.08122-.02538-.126899-.03807-.02538-.0076-.05076-.01777-.07614-.02284l-24.549788-5.27644c-.436531-.0939-.88829-.0076-1.261371.233493l-33.267716 21.798628c-.0076.0051-.01523.01269-.02284.01777-.01269.0076-.02538.01523-.03807.02284-.03045.0203-.05837.04822-.08883.07106-.01523.01269-.03553.02792-.05076.04061-.106595.09898-.203038.208114-.281715.327399-.01269.01776-.02284.04061-.03299.05837-.02538.04315-.05076.08629-.07106.129436-.01015.02538-.02284.05076-.03299.0736-.01777.04314-.03553.08375-.04822.126898-.0076.02538-.01776.0533-.02538.07868-.01269.04568-.0203.08883-.03046.134513-.0051.02538-.01015.0533-.01523.07868-.0076.05076-.01015.104056-.01269.154816 0 .0203-.0025.04061-.0025.06091v.01269 57.814966c0 .715708.459373 1.352738 1.137011 1.578618l24.778205 8.258555c.517746.172582 1.086252.08122 1.522783-.246183l33.041798-24.78075c.416228-.314708.664949-.807074.664949-1.3298964v-57.8124276c0-.0203-.0025-.03807-.0051-.05837z" opacity=".2"/><path d="m32.94841-56.157906-33.267716 21.79609c-.01015.01015-.106595.0736-.106595.0736.0203-.01269-.119284.09644-.119284.09644-.04822.03807-.04822.02792-.08883.0736l-.439069.51267c-.04061.04822-.02792.04061-.05837.09644l-.0051.0051c.0051-.0076-.106595.192886-.106595.192886-.0051.01269-.04568.104056-.04568.104056-.0025.01015-.08122.215728-.08122.218266l-.03299.104057c-.0051.0203-.0533.223341-.0533.223341s-.02284.126898-.02284.126898l-.01777.253798c0-.02284-.0051.0736-.0051.0736v57.850497c0 1.126859.718246 2.124282 1.789269 2.482135l24.778205 8.261094c.814689.269025 1.710592.124361 2.395844-.388309l33.039348-24.780759c.654797-.492366 1.045644-1.2740607 1.045644-2.0912871v-57.8200419c0-.01777-.0051-.08883-.0076-.116747 0-.02538-.01269-.167506-.01269-.170044 0 0-.02538-.164968-.02538-.17512-.0025-.0025-.01523-.0939-.01523-.0939-.0076-.04061-.01015-.04061-.02284-.07868 0 0-.05584-.197961-.05837-.197961l-.0533-.144665c-.0076-.01777-.08375-.185272-.08375-.185272-.0025-.0025-.07868-.14974-.07868-.14974-.01015-.01523-.109132-.170044-.109132-.170044s-.09898-.13705-.101519-.13705l-.09898-.119285c-.01269-.01523-.03046-.03299-.04315-.04568l-.09644-.101519c-.01015-.0076-.126899-.111671-.126899-.111671-.03553-.02792-.147202-.116747-.147202-.116747-.01523-.01015-.149741-.09898-.149741-.09898-.02284-.01523-.182733-.106595-.182733-.106595-.02538-.01269-.164969-.07614-.164969-.07614-.02792-.01015-.170044-.06853-.170044-.06853.0025 0-.190347-.05584-.190347-.05584.0076.0025-.131975-.03553-.131975-.03553l-24.544712-5.276441c-.68779-.147202-1.393345-.01777-1.982155.368006zm-34.402188 23.49653" fill="url(#g)"/><path d="m60.589446-48.752108c0-.03807-.0025-.07614-.0076-.114209-.0051-.04061-.01015-.08375-.01776-.121823-.0051-.0203-.0051-.04061-.01015-.05837-.0025-.01523-.01015-.03299-.01523-.04822-.01015-.04061-.02284-.08122-.03553-.121823-.01269-.03553-.02538-.06853-.03807-.104057-.01523-.03807-.03299-.0736-.0533-.109133-.01776-.03299-.03299-.06599-.0533-.09898-.0203-.03299-.04315-.06599-.06345-.09898-.0203-.03046-.04315-.06091-.06345-.09137-.02538-.03046-.0533-.05837-.07868-.08883-.02538-.02792-.05076-.0533-.07614-.08122-.02792-.02538-.05837-.05076-.08883-.07614-.03046-.02284-.05837-.04822-.08883-.07106-.03299-.02284-.06345-.04061-.09644-.06091-.03553-.0203-.06599-.04314-.104056-.06091-.0076-.0051-.01523-.01015-.02538-.01523-.02792-.01269-.0533-.02284-.08122-.03553-.03807-.01523-.07106-.03046-.109133-.04568-.04061-.01269-.08122-.02538-.126898-.03807-.02538-.0051-.05076-.01523-.07614-.02284l-24.549788-5.276441c-.436531-.0939-.88829-.0076-1.261372.236031l-33.267716 21.791014c-.0076.0051-.01523.01269-.02284.01777-.01269.0076-.02538.01523-.03807.02284-.03046.02284-.05837.04822-.08883.07106-.01523.01269-.03553.02538-.05076.04061-.106594.09898-.203037.208113-.281714.327398-.01269.0203-.02284.04061-.03299.05837-.02538.04315-.05076.08375-.07106.129437-.01015.02284-.02284.04822-.03299.0736-.01776.04314-.03553.08375-.04822.126898-.0076.02538-.01777.0533-.02538.07868-.01269.04315-.0203.08883-.03045.134513-.0051.02538-.01015.0533-.01523.07868-.0076.0533-.01015.104057-.01269.157354 0 .0203-.0025.04061-.0025.06091v.01015 57.817499c0 .715708.459373 1.350201 1.137011 1.578618l24.778205 8.258556c.517746.172582 1.086251.07868 1.522782-.248721l33.041779-24.778206c.416227-.314708.664948-.8070742.664948-1.3298961v-57.8149659c.0025-.01777 0-.03807-.0025-.05837z" fill="url(#h)"/><g transform="matrix(2.5379704 0 0 2.5379704 -30.17599 -58.122295)"><path d="m22.091 36.26-9.762-3.255v-22.781l9.762 3.255 13.018-9.764v22.781z" fill="url(#i)"/><path d="m22.091 13.479 13.018-9.764-9.672-2.078-13.108 8.587z" fill="url(#j)"/><path d="m22.091 13.479-9.762-3.255v22.781l9.762 3.255z" fill="url(#k)"/><path d="m22.091 36.26v-5.756l-9.762-3.104v5.605z" fill="url(#l)"/><path d="m20.093 16.546-6.287-2.095v1.714l6.287 2.096z" fill="url(#n)"/><path d="m20.093 18.975-6.287-2.096v1.715l6.287 2.095z" fill="url(#o)"/><path d="m20.093 21.404-6.287-2.096v1.715l6.287 2.095z" fill="url(#p)"/><g><path d="m19.776 33.411c-.453-.121-.808.097-.808.497s.355.809.808.93l.48.129c.454.122.809-.097.809-.497 0-.399-.355-.809-.809-.93z" fill="url(#q)"/><path d="m19.776 33.603c-.347-.094-.63.065-.63.354s.283.599.63.691l.48.129c.348.093.63-.066.63-.354s-.282-.598-.63-.69z" fill="url(#r)"/><path d="m20.828 34.406c0 .254-.256.391-.571.306l-.48-.128c-.315-.085-.57-.358-.57-.612 0-.253.255-.39.57-.306l.48.129c.315.085.571.358.571.611z" fill="url(#s)"/><path d="m19.776 33.794c-.245-.065-.451.038-.451.226s.207.402.451.469l.48.129c.245.065.452-.038.452-.227s-.207-.402-.452-.468z" fill="url(#t)"/><path d="m19.758 33.713c-.202-.054-.358.037-.358.151s.156.289.358.343l.518.139c.205.056.358-.034.358-.15s-.153-.288-.358-.343z" fill="url(#u)"/></g></g><path d="m0 48v-48h48v48" fill="none" transform="translate(-12.8)"/></g><path d="m349.25244 343.80451c-13.32442 0-25.11784 6.05998-32.42965 15.39634-2.98444-.60779-6.08355-.94845-9.247-.94845-25.48352 0-46.13735 20.71033-46.13735 46.25225 0 25.54191 20.65383 46.25223 46.13735 46.25223 3.06039 0 6.06018-.31543 8.95398-.88521 9.74868 9.27895 25.44261 15.30149 43.14184 15.30149 29.57246 0 53.56099-16.82608 53.56099-37.5582 0-.87409-.0464-1.73323-.13023-2.5924 22.89399-4.72958 38.87648-15.3917 38.87648-27.75767 0-16.76188-29.3403-30.35008-65.51046-30.35008-.0329 0-.0649-.00001-.0977 0-6.06108-13.56957-20.40773-23.1103-37.11827-23.1103z" fill="#fff" stroke="#000" stroke-width="1.102702"/><text font-family="DejaVu Sans" font-size="24" x="117.14285" y="383.79077"><tspan x="117.14285" y="383.79077">Clients</tspan></text><text font-family="DejaVu Sans" font-size="24" x="304" y="408.07645"><tspan x="304" y="408.07645">Internet</tspan></text><text font-family="DejaVu Sans" font-size="24" x="500.28571" y="425.21933"><tspan x="500.28571" y="425.21933">Serveur</tspan></text></g></svg>