<?xml version="1.0" encoding="utf-8"?>
<svg version="1.1" id="Ebene_1" xmlns="http://www.w3.org/2000/svg" xmlns:xlink="http://www.w3.org/1999/xlink" x="0px" y="0px" viewBox="0 0 1028.7 714.7" style="enable-background:new 0 0 1028.7 714.7;" xml:space="preserve">
	<g>
		<ellipse style="fill:#E5F2E5;stroke:#878684;stroke-miterlimit:9;stroke-dasharray:12,12;" cx="678.6" cy="354.1" rx="345" ry="343.7"/>
		<text transform="matrix(1 0 0 1 648.05 34.717)" style="font-family:-apple-system, BlinkMacSystemFont, 'Segoe UI', 'Roboto', Ubuntu, Liberation Sans, sans-serif; font-size:28.1226px;">CSS3</text>
		<path style="fill:#ADD9E5;stroke:#878684;stroke-miterlimit:10;" d="M905.6,367.8c0-126-102.5-228.2-228.8-228.2
		S447.9,241.8,447.9,367.8S550.4,596,676.7,596S905.6,493.9,905.6,367.8z"/>
		<text transform="matrix(1 0 0 1 639.92 166.39)" style="font-family:-apple-system, BlinkMacSystemFont, 'Segoe UI', 'Roboto', Ubuntu, Liberation Sans, sans-serif; font-size:25.8451px;">CSS2.1</text>

		<ellipse style="fill:none;stroke:#878684;stroke-miterlimit:10;stroke-dasharray:12,12;" cx="680.2" cy="426.2" rx="152.6" ry="150.4"/>
		<text transform="matrix(1 0 0 1 653.812 299.74)" style="font-family:-apple-system, BlinkMacSystemFont, 'Segoe UI', 'Roboto', Ubuntu, Liberation Sans, sans-serif; font-size:23.6572px;">CSS1</text>
		<g>
			<circle style="fill:#83AF40;stroke:#000000;" cx="679.5" cy="432.7" r="42.9"/>

			<text transform="matrix(1 0 0 1 659.6901 429.086)" style="fill:#FFFFFF; font-family:-apple-system, BlinkMacSystemFont, 'Segoe UI', 'Roboto', Ubuntu, Liberation Sans, sans-serif; font-size:18px;">CSS</text>

			<text transform="matrix(1 0 0 1 696.7009 429.086)" style="fill:#FFFFFF; font-family:-apple-system, BlinkMacSystemFont, 'Segoe UI', 'Roboto', Ubuntu, Liberation Sans, sans-serif; font-size:18px;"></text>

			<text transform="matrix(1 0 0 1 653.1818 450.686)" style="fill:#FFFFFF; font-family:-apple-system, BlinkMacSystemFont, 'Segoe UI', 'Roboto', Ubuntu, Liberation Sans, sans-serif; font-size:18px;">Syntax</text>
		</g>
		<g>
			<path style="fill:#83AF40;stroke:#000000;" d="M788.4,215.8c4.7,18.2-6.3,36.8-24.6,41.5c-18.2,4.7-36.8-6.3-41.5-24.6
			c-4.7-18.2,6.3-36.8,24.6-41.5C765.1,186.5,783.7,197.5,788.4,215.8L788.4,215.8z"/>

			<text transform="matrix(1 0 0 1 723.9761 223.323)" style="fill:#FFFFFF; font-family:-apple-system, BlinkMacSystemFont, 'Segoe UI', 'Roboto', Ubuntu, Liberation Sans, sans-serif; font-size:13px;">Generated</text>

			<text transform="matrix(1 0 0 1 788.1343 223.323)" style="fill:#FFFFFF; font-family:-apple-system, BlinkMacSystemFont, 'Segoe UI', 'Roboto', Ubuntu, Liberation Sans, sans-serif; font-size:14px;"></text>

			<text transform="matrix(1 0 0 1 734.0381 240.123)" style="fill:#FFFFFF; font-family:-apple-system, BlinkMacSystemFont, 'Segoe UI', 'Roboto', Ubuntu, Liberation Sans, sans-serif; font-size:14px;">content</text>
		</g>
		<g>
			<path style="fill:#83AF40;stroke:#000000;" d="M853.6,263.8c4.7,18.2-6.3,36.8-24.6,41.5c-18.2,4.7-36.8-6.3-41.5-24.6
			c-4.7-18.2,6.3-36.8,24.6-41.5C830.4,234.6,849,245.6,853.6,263.8z"/>

			<text transform="matrix(1 0 0 1 800.2636 277.354)" style="fill:#FFFFFF; font-family:-apple-system, BlinkMacSystemFont, 'Segoe UI', 'Roboto', Ubuntu, Liberation Sans, sans-serif; font-size:14px;">Tables</text>
		</g>
		<g>
			<path style="fill:#83AF40;stroke:#000000;" d="M893.7,333.4c4.7,18.2-6.3,36.8-24.6,41.5c-18.2,4.7-36.8-6.3-41.5-24.6
			c-4.7-18.2,6.3-36.8,24.6-41.5C870.4,304.2,889,315.1,893.7,333.4z"/>
			<text transform="matrix(1 0 0 1 838.357 338.096)" style="fill:#FFFFFF; font-family:-apple-system, BlinkMacSystemFont, 'Segoe UI', 'Roboto', Ubuntu, Liberation Sans, sans-serif; font-size:14px;">Paged</text>

			<text transform="matrix(1 0 0 1 878.8394 338.096)" style="fill:#FFFFFF; font-family:-apple-system, BlinkMacSystemFont, 'Segoe UI', 'Roboto', Ubuntu, Liberation Sans, sans-serif; font-size:14px;"></text>

			<text transform="matrix(1 0 0 1 841.4776 357.296)" style="fill:#FFFFFF; font-family:-apple-system, BlinkMacSystemFont, 'Segoe UI', 'Roboto', Ubuntu, Liberation Sans, sans-serif; font-size:14px;">media</text>
		</g>
		<g>
			<path style="fill:#ED1E24;stroke:#000000;" d="M445.5,257.1c0.7,18.8-14,34.6-32.8,35.3c-18.8,0.7-34.6-14-35.3-32.8
			c-0.7-18.8,14-34.6,32.8-35.3S444.8,238.3,445.5,257.1z"/>
			<text transform="matrix(1 0 0 1 390.211 255.5)" style="fill:#FFFFFF; font-family:-apple-system, BlinkMacSystemFont, 'Segoe UI', 'Roboto', Ubuntu, Liberation Sans, sans-serif; font-size:14px;">Paged</text>
			<text transform="matrix(1 0 0 1 428.6934 255.5)" style="fill:#FFFFFF; font-family:-apple-system, BlinkMacSystemFont, 'Segoe UI', 'Roboto', Ubuntu, Liberation Sans, sans-serif; font-size:14px;"></text>
			<text transform="matrix(1 0 0 1 391.3316 274.7)" style="fill:#FFFFFF; font-family:-apple-system, BlinkMacSystemFont, 'Segoe UI', 'Roboto', Ubuntu, Liberation Sans, sans-serif; font-size:14px;">Media</text>
		</g>
		<g>
			<path style="fill:#83AF40;stroke:#000000;" d="M711.3,208.9c0,18.8-15.3,34.1-34.1,34.1s-34.1-15.3-34.1-34.1s15.3-34.1,34.1-34.1
			S711.3,190.1,711.3,208.9z"/>
			<text transform="matrix(1 0 0 1 655.4462 204.2)" style="fill:#FFFFFF; font-family:-apple-system, BlinkMacSystemFont, 'Segoe UI', 'Roboto', Ubuntu, Liberation Sans, sans-serif; font-size:14px;">Visual</text>
			<text transform="matrix(1 0 0 1 693.3242 204.2)" style="fill:#FFFFFF; font-family:-apple-system, BlinkMacSystemFont, 'Segoe UI', 'Roboto', Ubuntu, Liberation Sans, sans-serif; font-size:14px;"></text>
			<text transform="matrix(1 0 0 1 655.06 223.4)" style="fill:#FFFFFF; font-family:-apple-system, BlinkMacSystemFont, 'Segoe UI', 'Roboto', Ubuntu, Liberation Sans, sans-serif; font-size:14px;">Effects</text>
		</g>
		<g>
			<circle style="fill:#83AF40;stroke:#000000;" cx="580.8" cy="434.9" r="34.1"/>

			<text transform="matrix(1 0 0 1 553.2195 440.952)" style="fill:#FFFFFF; font-family:-apple-system, BlinkMacSystemFont, 'Segoe UI', 'Roboto', Ubuntu, Liberation Sans, sans-serif; font-size:14px;">Cascade</text>
		</g>
		<g>
			<circle style="fill:#83AF40;stroke:#000000;" cx="638.9" cy="515.8" r="34.1"/>
			<text transform="matrix(1 0 0 1 614.591 511.488)" style="fill:#FFFFFF; font-family:-apple-system, BlinkMacSystemFont, 'Segoe UI', 'Roboto', Ubuntu, Liberation Sans, sans-serif; font-size:14px;">Pseudo</text>

			<text transform="matrix(1 0 0 1 662.0734 511.488)" style="fill:#FFFFFF; font-family:-apple-system, BlinkMacSystemFont, 'Segoe UI', 'Roboto', Ubuntu, Liberation Sans, sans-serif; font-size:14px;"></text>

			<text transform="matrix(1 0 0 1 614.1805 530.688)" style="fill:#FFFFFF; font-family:-apple-system, BlinkMacSystemFont, 'Segoe UI', 'Roboto', Ubuntu, Liberation Sans, sans-serif; font-size:14px;">Classes</text>
		</g>
		<g>
			<circle style="fill:#83AF40;stroke:#000000;" cx="736.9" cy="511.1" r="34.1"/>

			<text transform="matrix(1 0 0 1 722.9932 504.828)" style="fill:#FFFFFF; font-family:-apple-system, BlinkMacSystemFont, 'Segoe UI', 'Roboto', Ubuntu, Liberation Sans, sans-serif; font-size:14px;">Box</text>

			<text transform="matrix(1 0 0 1 747.1172 504.828)" style="fill:#FFFFFF; font-family:-apple-system, BlinkMacSystemFont, 'Segoe UI', 'Roboto', Ubuntu, Liberation Sans, sans-serif; font-size:14px;"></text>

			<text transform="matrix(1 0 0 1 708.0967 521.628)" style="fill:#FFFFFF; font-family:-apple-system, BlinkMacSystemFont, 'Segoe UI', 'Roboto', Ubuntu, Liberation Sans, sans-serif; font-size:13px;">Properties</text>
		</g>
		<g>
			<path style="fill:#83AF40;stroke:#000000;" d="M804.4,406.3c14,12.6,15.2,34.1,2.6,48.2c-12.6,14-34.1,15.2-48.2,2.6
			c-14-12.6-15.2-34.1-2.6-48.2C768.8,394.9,790.4,393.7,804.4,406.3z"/>

			<text transform="matrix(1 0 0 1 766.3373 425.024)" style="fill:#FFFFFF; font-family:-apple-system, BlinkMacSystemFont, 'Segoe UI', 'Roboto', Ubuntu, Liberation Sans, sans-serif; font-size:14px;">Text</text>

			<text transform="matrix(1 0 0 1 792.0131 425.024)" style="fill:#FFFFFF; font-family:-apple-system, BlinkMacSystemFont, 'Segoe UI', 'Roboto', Ubuntu, Liberation Sans, sans-serif; font-size:14px;"></text>

			<text transform="matrix(1 0 0 1 749.2167 441.824)" style="fill:#FFFFFF; font-family:-apple-system, BlinkMacSystemFont, 'Segoe UI', 'Roboto', Ubuntu, Liberation Sans, sans-serif; font-size:14px;">Properties</text>
		</g>
		<g>
			<circle style="fill:#83AF40;stroke:#000000;" cx="727.5" cy="353.4" r="34.1"/>

			<text transform="matrix(1 0 0 1 702.3709 348.488)" style="fill:#FFFFFF; font-family:-apple-system, BlinkMacSystemFont, 'Segoe UI', 'Roboto', Ubuntu, Liberation Sans, sans-serif; font-size:14px;">Color +</text>

			<text transform="matrix(1 0 0 1 747.8914 348.488)" style="fill:#FFFFFF; font-family:-apple-system, BlinkMacSystemFont, 'Segoe UI', 'Roboto', Ubuntu, Liberation Sans, sans-serif; font-size:14px;"></text>
			<text transform="matrix(1 0 0 1 695.386 364.088)" style="fill:#FFFFFF; font-family:-apple-system, BlinkMacSystemFont, 'Segoe UI', 'Roboto', Ubuntu, Liberation Sans, sans-serif; font-size:12px;">Background</text>
		</g>
		<g>
			<path style="fill:#83AF40;stroke:#000000;" d="M656.8,355.5c0.1,18.8-15,34.2-33.8,34.4c-18.8,0.1-34.2-15-34.4-33.8
			c-0.1-18.8,15-34.2,33.8-34.4C641.2,321.5,656.6,336.7,656.8,355.5z"/>
			<text transform="matrix(1 0 0 1 606.3633 349.55)" style="fill:#FFFFFF; font-family:-apple-system, BlinkMacSystemFont, 'Segoe UI', 'Roboto', Ubuntu, Liberation Sans, sans-serif; font-size:14px;">Font</text>
			<text transform="matrix(1 0 0 1 634.377 349.55)" style="fill:#FFFFFF; font-family:-apple-system, BlinkMacSystemFont, 'Segoe UI', 'Roboto', Ubuntu, Liberation Sans, sans-serif; font-size:14px;"></text>
			<text transform="matrix(1 0 0 1 593.4117 366.35)" style="fill:#FFFFFF; font-family:-apple-system, BlinkMacSystemFont, 'Segoe UI', 'Roboto', Ubuntu, Liberation Sans, sans-serif; font-size:13px;">Properties</text>
		</g>
		<g>
			<circle style="fill:#83AF40;stroke:#000000;" cx="756" cy="90.3" r="34.1"/>
			<text transform="matrix(1 0 0 1 726.7738 90)" style="fill:#FFFFFF; font-family:-apple-system, BlinkMacSystemFont, 'Segoe UI', 'Roboto', Ubuntu, Liberation Sans, sans-serif; font-size:14px;">Selectors</text>
			<text transform="matrix(1 0 0 1 785.3114 90)" style="fill:#FFFFFF; font-family:-apple-system, BlinkMacSystemFont, 'Segoe UI', 'Roboto', Ubuntu, Liberation Sans, sans-serif; font-size:14px;"></text>
			<text transform="matrix(1 0 0 1 750.2909 109.2)" style="fill:#FFFFFF; font-family:-apple-system, BlinkMacSystemFont, 'Segoe UI', 'Roboto', Ubuntu, Liberation Sans, sans-serif; font-size:14px;">L3</text>
		</g>
		<g>
			<circle style="fill:#87871A;stroke:#000000;stroke-miterlimit:10;" cx="643.1" cy="647.6" r="34.1"/>
			<text transform="matrix(1 0 0 1 628 644)" style="fill:#FFFFFF; font-family:-apple-system, BlinkMacSystemFont, 'Segoe UI', 'Roboto', Ubuntu, Liberation Sans, sans-serif; font-size:14px;">Grid</text>
			<text transform="matrix(1 0 0 1 622 661)" style="fill:#FFFFFF; font-family:-apple-system, BlinkMacSystemFont, 'Segoe UI', 'Roboto', Ubuntu, Liberation Sans, sans-serif; font-size:14px;">Layout</text>
		</g>
		<g>
			<circle style="fill:#83AF40;stroke:#000000;" cx="832.9" cy="124.5" r="34.1"/>
			<text transform="matrix(1 0 0 1 811.3098 121)" style="fill:#FFFFFF; font-family:-apple-system, BlinkMacSystemFont, 'Segoe UI', 'Roboto', Ubuntu, Liberation Sans, sans-serif; font-size:14px;">Media</text>
			<text transform="matrix(1 0 0 1 849.4406 121)" style="fill:#FFFFFF; font-family:-apple-system, BlinkMacSystemFont, 'Segoe UI', 'Roboto', Ubuntu, Liberation Sans, sans-serif; font-size:14px;"></text>
			<text transform="matrix(1 0 0 1 807.8098 140.2)" style="fill:#FFFFFF; font-family:-apple-system, BlinkMacSystemFont, 'Segoe UI', 'Roboto', Ubuntu, Liberation Sans, sans-serif; font-size:14px;">Queries</text>
		</g>
		<g>
			<circle style="fill:#87871A;stroke:#000000;" cx="944" cy="256.8" r="34.1"/>
			<text transform="matrix(1 0 0 1 914.3467 256.13)" style="fill:#FFFFFF; font-family:-apple-system, BlinkMacSystemFont, 'Segoe UI', 'Roboto', Ubuntu, Liberation Sans, sans-serif; font-size:11px;">Background</text>
			<text transform="matrix(1 0 0 1 974.3896 256.13)" style="fill:#FFFFFF; font-family:-apple-system, BlinkMacSystemFont, 'Segoe UI', 'Roboto', Ubuntu, Liberation Sans, sans-serif; font-size:14px;"></text>
			<text transform="matrix(1 0 0 1 913.77 272.93)" style="fill:#FFFFFF; font-family:-apple-system, BlinkMacSystemFont, 'Segoe UI', 'Roboto', Ubuntu, Liberation Sans, sans-serif; font-size:14px;">+ Borders</text>
		</g>
		<g>
			<circle style="fill:#87871A;stroke:#000000;" cx="965.2" cy="340.7" r="34.1"/>
			<text transform="matrix(1 0 0 1 949.0999 336.58)" style="fill:#FFFFFF; font-family:-apple-system, BlinkMacSystemFont, 'Segoe UI', 'Roboto', Ubuntu, Liberation Sans, sans-serif; font-size:14px;">Multi</text>
			<text transform="matrix(1 0 0 1 978.6584 336.58)" style="fill:#FFFFFF; font-family:-apple-system, BlinkMacSystemFont, 'Segoe UI', 'Roboto', Ubuntu, Liberation Sans, sans-serif; font-size:14px;"></text>
			<text transform="matrix(1 0 0 1 941.7034 355.78)" style="fill:#FFFFFF; font-family:-apple-system, BlinkMacSystemFont, 'Segoe UI', 'Roboto', Ubuntu, Liberation Sans, sans-serif; font-size:14px;">Column</text>
		</g>
		<g>
			<circle style="fill:#87871A;stroke:#000000;stroke-miterlimit:10;" cx="807.5" cy="614.7" r="34.1"/>
			<text transform="matrix(1 0 0 1 788.623 611.5)" style="fill:#FFFFFF; font-family:-apple-system, BlinkMacSystemFont, 'Segoe UI', 'Roboto', Ubuntu, Liberation Sans, sans-serif; font-size:14px;">Basic</text>
			<text transform="matrix(1 0 0 1 822.8574 611.5)" style="fill:#FFFFFF; font-family:-apple-system, BlinkMacSystemFont, 'Segoe UI', 'Roboto', Ubuntu, Liberation Sans, sans-serif; font-size:14px;"></text>
			<text transform="matrix(1 0 0 1 800.685 630.7)" style="fill:#FFFFFF; font-family:-apple-system, BlinkMacSystemFont, 'Segoe UI', 'Roboto', Ubuntu, Liberation Sans, sans-serif; font-size:14px;">UI</text>
		</g>
		<g>
			<circle style="fill:#83AF40;stroke:#000000;" cx="902.3" cy="180.8" r="34.1"/>

			<text transform="matrix(1 0 0 1 884.2692 175.667)" style="fill:#FFFFFF; font-family:-apple-system, BlinkMacSystemFont, 'Segoe UI', 'Roboto', Ubuntu, Liberation Sans, sans-serif; font-size:14px;">Style</text>

			<text transform="matrix(1 0 0 1 915.3932 175.667)" style="fill:#FFFFFF; font-family:-apple-system, BlinkMacSystemFont, 'Segoe UI', 'Roboto', Ubuntu, Liberation Sans, sans-serif; font-size:14px;"></text>

			<text transform="matrix(1 0 0 1 872.2072 192.467)" style="fill:#FFFFFF; font-family:-apple-system, BlinkMacSystemFont, 'Segoe UI', 'Roboto', Ubuntu, Liberation Sans, sans-serif; font-size:14px;">Attributes</text>
		</g>
		<g>
			<circle style="fill:#83AF40;stroke:#000000;" cx="590.5" cy="91.6" r="34.1"/>
			<text transform="matrix(1 0 0 1 572.0676 89.666)" style="fill:#FFFFFF; font-family:-apple-system, BlinkMacSystemFont, 'Segoe UI', 'Roboto', Ubuntu, Liberation Sans, sans-serif; font-size:14px;">Color</text>
			<text transform="matrix(1 0 0 1 605.5227 89.666)" style="fill:#FFFFFF; font-family:-apple-system, BlinkMacSystemFont, 'Segoe UI', 'Roboto', Ubuntu, Liberation Sans, sans-serif; font-size:14px;"></text>

			<text transform="matrix(1 0 0 1 582.9539 108.866)" style="fill:#FFFFFF; font-family:-apple-system, BlinkMacSystemFont, 'Segoe UI', 'Roboto', Ubuntu, Liberation Sans, sans-serif; font-size:14px;">L3</text>
		</g>
		<g>
			<circle style="fill:#ED1E24;stroke:#000000;" cx="435.5" cy="503.5" r="34.1"/>
			<text transform="matrix(1 0 0 1 418.1267 510)" style="fill:#FFFFFF; font-family:-apple-system, BlinkMacSystemFont, 'Segoe UI', 'Roboto', Ubuntu, Liberation Sans, sans-serif; font-size:14px;">Ruby</text>
		</g>
		<g>
			<path style="fill:#87871A;stroke:#000000;" d="M902,545.1c12.1,14.5,10.1,36-4.4,48c-14.5,12.1-36,10.1-48-4.4
			c-12.1-14.5-10.1-36,4.4-48C868.4,528.7,889.9,530.6,902,545.1z"/>
			<text transform="matrix(1 0 0 1 849.6196 564.5)" style="fill:#FFFFFF; font-family:-apple-system, BlinkMacSystemFont, 'Segoe UI', 'Roboto', Ubuntu, Liberation Sans, sans-serif; font-size:14px;">Flexible</text>
			<text transform="matrix(1 0 0 1 897.8608 564.5)" style="fill:#FFFFFF; font-family:-apple-system, BlinkMacSystemFont, 'Segoe UI', 'Roboto', Ubuntu, Liberation Sans, sans-serif; font-size:14px;"></text>
			<text transform="matrix(1 0 0 1 854.6679 583.7)" style="fill:#FFFFFF; font-family:-apple-system, BlinkMacSystemFont, 'Segoe UI', 'Roboto', Ubuntu, Liberation Sans, sans-serif; font-size:14px;">Layout</text>
		</g>
		<g>
			<path style="fill:#83AF40;stroke:#000000;" d="M708,79.7c0.1,18.8-15.2,34.2-34,34.2c-18.8,0.1-34.1-15.2-34.2-34
			c-0.1-18.8,15.2-34.2,34-34.2C692.7,45.6,708,60.9,708,79.7z"/>
			<text transform="matrix(1 0 0 1 653.5828 76.334)" style="fill:#FFFFFF; font-family:-apple-system, BlinkMacSystemFont, 'Segoe UI', 'Roboto', Ubuntu, Liberation Sans, sans-serif; font-size:14px;">Name</text>
			<text transform="matrix(1 0 0 1 690.9276 76.334)" style="fill:#FFFFFF; font-family:-apple-system, BlinkMacSystemFont, 'Segoe UI', 'Roboto', Ubuntu, Liberation Sans, sans-serif; font-size:14px;"></text>
			<text transform="matrix(1 0 0 1 652.0208 95.534)" style="fill:#FFFFFF; font-family:-apple-system, BlinkMacSystemFont, 'Segoe UI', 'Roboto', Ubuntu, Liberation Sans, sans-serif; font-size:14px;">spaces</text>
		</g>
		<g>
			<circle style="fill:#83AF40;stroke:#000000;" cx="513.6" cy="125.7" r="34.1"/>

			<text transform="matrix(1 0 0 1 488.1299 131.667)" style="fill:#FFFFFF; font-family:-apple-system, BlinkMacSystemFont, 'Segoe UI', 'Roboto', Ubuntu, Liberation Sans, sans-serif; font-size:14px;">MathML</text>
		</g>
		<g>
			<path style="fill:#87871A;stroke:#000000;" d="M997,424.4c0.6,18.8-14.2,34.6-33.1,35.1c-18.8,0.6-34.6-14.2-35.1-33.1
			c-0.6-18.8,14.2-34.6,33.1-35.1C980.8,390.8,996.5,405.6,997,424.4z"/>
			<text transform="matrix(1 0 0 1 939.2288 429.95)" style="fill:#FFFFFF; font-family:-apple-system, BlinkMacSystemFont, 'Segoe UI', 'Roboto', Ubuntu, Liberation Sans, sans-serif; font-size:14px;">Speech</text>
		</g>
		<g>
			<path style="fill:#87871A;stroke:#000000;" d="M962.9,502.5c0.6,18.8-14.2,34.6-33.1,35.1c-18.8,0.6-34.6-14.2-35.1-33.1
			c-0.6-18.8,14.2-34.6,33.1-35.1C946.7,468.9,962.4,483.7,962.9,502.5L962.9,502.5z"/>

			<text transform="matrix(1 0 0 1 905.8333 500.832)" style="fill:#FFFFFF; font-family:-apple-system, BlinkMacSystemFont, 'Segoe UI', 'Roboto', Ubuntu, Liberation Sans, sans-serif; font-size:14px;">Syntax</text>

			<text transform="matrix(1 0 0 1 948.6331 500.832)" style="fill:#FFFFFF; font-family:-apple-system, BlinkMacSystemFont, 'Segoe UI', 'Roboto', Ubuntu, Liberation Sans, sans-serif; font-size:14px;"></text>

			<text transform="matrix(1 0 0 1 921.3918 520.032)" style="fill:#FFFFFF; font-family:-apple-system, BlinkMacSystemFont, 'Segoe UI', 'Roboto', Ubuntu, Liberation Sans, sans-serif; font-size:14px;">L3</text>
		</g>
		<g>
			<path style="fill:#ED1E24;stroke:#000000;" d="M428.2,340.6c0.7,18.8-14,34.6-32.8,35.3c-18.8,0.7-34.6-14-35.3-32.8
			c-0.7-18.8,14-34.6,32.8-35.3C411.7,307.1,427.5,321.8,428.2,340.6z"/>
			<text transform="matrix(1 0 0 1 363.3762 347)" style="fill:#FFFFFF; font-family:-apple-system, BlinkMacSystemFont, 'Segoe UI', 'Roboto', Ubuntu, Liberation Sans, sans-serif; font-size:12px;">Transforms</text>
		</g>
		<g>
			<path style="fill:#ED1E24;stroke:#000000;" d="M435.5,424.7c0.4,18.8-14.5,34.4-33.4,34.8s-34.4-14.5-34.8-33.4
			c-0.4-18.8,14.5-34.4,33.4-34.8C419.5,390.9,435.1,405.9,435.5,424.7z"/>
			<text transform="matrix(1 0 0 1 372.5602 431)" style="fill:#FFFFFF; font-family:-apple-system, BlinkMacSystemFont, 'Segoe UI', 'Roboto', Ubuntu, Liberation Sans, sans-serif; font-size:12px;">Transitions</text>
		</g>
		<g>
			<path style="fill:#83AF40;stroke:#000000;" d="M530.9,342.7c0.9,18.8-13.6,34.8-32.4,35.7c-18.8,0.9-34.8-13.6-35.7-32.4
			c-0.9-18.8,13.6-34.8,32.4-35.7C514.1,309.3,530,323.9,530.9,342.7z"/>
			<text transform="matrix(1 0 0 1 467.0358 349.23)" style="fill:#FFFFFF; font-family:-apple-system, BlinkMacSystemFont, 'Segoe UI', 'Roboto', Ubuntu, Liberation Sans, sans-serif; font-size:14px;">Selectors</text>
		</g>
		<g>
			<path style="fill:#83AF40;stroke:#000000;" d="M571,272.8c0,18.8-15.2,34.1-34.1,34.2c-18.8,0-34.1-15.2-34.2-34
			c0-18.8,15.2-34.1,34.1-34.2C555.6,238.7,570.9,253.9,571,272.8z"/>

			<text transform="matrix(1 0 0 1 515.8118 268.416)" style="fill:#FFFFFF; font-family:-apple-system, BlinkMacSystemFont, 'Segoe UI', 'Roboto', Ubuntu, Liberation Sans, sans-serif; font-size:14px;">Media</text>

			<text transform="matrix(1 0 0 1 553.9426 268.416)" style="fill:#FFFFFF; font-family:-apple-system, BlinkMacSystemFont, 'Segoe UI', 'Roboto', Ubuntu, Liberation Sans, sans-serif; font-size:14px;"></text>

			<text transform="matrix(1 0 0 1 518.1462 287.616)" style="fill:#FFFFFF; font-family:-apple-system, BlinkMacSystemFont, 'Segoe UI', 'Roboto', Ubuntu, Liberation Sans, sans-serif; font-size:14px;">Types</text>
		</g>
		<g>
			<path style="fill:#83AF40;stroke:#000000;" d="M633,222.7c0,18.8-15.3,34.1-34.2,34c-18.8,0-34.1-15.3-34-34.2
			c0-18.8,15.3-34.1,34.2-34C617.8,188.6,633.1,203.9,633,222.7L633,222.7z"/>
			<text transform="matrix(1 0 0 1 585.6812 218.52)" style="fill:#FFFFFF; font-family:-apple-system, BlinkMacSystemFont, 'Segoe UI', 'Roboto', Ubuntu, Liberation Sans, sans-serif; font-size:14px;">Box</text>
			<text transform="matrix(1 0 0 1 609.8052 218.52)" style="fill:#FFFFFF; font-family:-apple-system, BlinkMacSystemFont, 'Segoe UI', 'Roboto', Ubuntu, Liberation Sans, sans-serif; font-size:14px;"></text>
			<text transform="matrix(1 0 0 1 580.6226 237.72)" style="fill:#FFFFFF; font-family:-apple-system, BlinkMacSystemFont, 'Segoe UI', 'Roboto', Ubuntu, Liberation Sans, sans-serif; font-size:14px;">Model</text>
		</g>
		<g>
			<circle style="fill:#ED1E24;stroke:#000000;stroke-linecap:round;stroke-miterlimit:10;" cx="488.7" cy="576.5" r="34.1"/>
			<text transform="matrix(1 0 0 1 458 576)" style="fill:#FFFFFF; font-family:-apple-system, BlinkMacSystemFont, 'Segoe UI', 'Roboto', Ubuntu, Liberation Sans, sans-serif; font-size:14px;">Selectors</text>
			<text transform="matrix(1 0 0 1 479 595)" style="fill:#FFFFFF; font-family:-apple-system, BlinkMacSystemFont, 'Segoe UI', 'Roboto', Ubuntu, Liberation Sans, sans-serif; font-size:14px;">L4</text>
		</g>
		<g>
			<circle style="fill:#ED1E24;stroke:#000000;" cx="454.6" cy="185.6" r="34.1"/>
			<text transform="matrix(1 0 0 1 423.1201 185)" style="fill:#FFFFFF; font-family:-apple-system, BlinkMacSystemFont, 'Segoe UI', 'Roboto', Ubuntu, Liberation Sans, sans-serif; font-size:13px;">Generated</text>
			<text transform="matrix(1 0 0 1 486.2783 185)" style="fill:#FFFFFF; font-family:-apple-system, BlinkMacSystemFont, 'Segoe UI', 'Roboto', Ubuntu, Liberation Sans, sans-serif; font-size:14px;"></text>
			<text transform="matrix(1 0 0 1 430.6269 201.8)" style="fill:#FFFFFF; font-family:-apple-system, BlinkMacSystemFont, 'Segoe UI', 'Roboto', Ubuntu, Liberation Sans, sans-serif; font-size:14px;">Content</text>
		</g>
		<g>
			<circle style="fill:#87871A;stroke:#000000;stroke-miterlimit:10;" cx="727.5" cy="642.8" r="34.1"/>
			<text transform="matrix(1 0 0 1 701.4446 646.5)" style="fill:#FFFFFF; font-family:-apple-system, BlinkMacSystemFont, 'Segoe UI', 'Roboto', Ubuntu, Liberation Sans, sans-serif; font-size:14px;">Masking</text>
		</g>
		<g>
			<path style="fill:#ED1E24;stroke:#000000;stroke-miterlimit:10;" d="M595.8,622.2c0.9,18.8-13.6,34.8-32.4,35.7
			c-18.8,0.9-34.8-13.6-35.7-32.4c-0.9-18.8,13.6-34.8,32.4-35.7C578.9,588.8,594.9,603.3,595.8,622.2z"/>
			<text transform="matrix(1 0 0 1 545.8766 619)" style="fill:#FFFFFF; font-family:-apple-system, BlinkMacSystemFont, 'Segoe UI', 'Roboto', Ubuntu, Liberation Sans, sans-serif; font-size:14px;">Web</text>
			<text transform="matrix(1 0 0 1 574.4098 619)" style="fill:#FFFFFF; font-family:-apple-system, BlinkMacSystemFont, 'Segoe UI', 'Roboto', Ubuntu, Liberation Sans, sans-serif; font-size:14px;"></text>
			<text transform="matrix(1 0 0 1 531.934 634.6)" style="fill:#FFFFFF; font-family:-apple-system, BlinkMacSystemFont, 'Segoe UI', 'Roboto', Ubuntu, Liberation Sans, sans-serif; font-size:12px;">Animations</text>
		</g>
	</g>
	<g>
		<g>
			<g>
				<path style="fill:#ED1E24;stroke:#000000;" d="M39.2,309.9c6.6,7.9,5.5,19.6-2.4,26.2s-19.6,5.5-26.2-2.4s-5.5-19.6,2.4-26.2
				C20.8,300.9,32.6,302,39.2,309.9z"/>
			</g>
			<g>
				<path style="fill:#A9A8A8;stroke:#000000;stroke-miterlimit:10;" d="M39.2,364.1c6.6,7.9,5.5,19.6-2.4,26.2s-19.6,5.5-26.2-2.4
				C4,380,5,368.3,12.9,361.7C20.8,355.1,32.6,356.2,39.2,364.1z"/>
			</g>
			<g>
				<path style="fill:#C3642F;stroke:#000000;stroke-miterlimit:10;" d="M39.2,255.7c6.6,7.9,5.5,19.6-2.4,26.2s-19.6,5.5-26.2-2.4
				s-5.5-19.6,2.4-26.2C20.8,246.8,32.6,247.8,39.2,255.7z"/>
			</g>
			<g>
				<path style="fill:#87871A;stroke:#000000;" d="M39.2,201.6c6.6,7.9,5.5,19.6-2.4,26.2c-7.9,6.6-19.6,5.5-26.2-2.4
				s-5.5-19.6,2.4-26.2C20.8,192.6,32.6,193.7,39.2,201.6z"/>
			</g>
			<g>
				<path style="fill:#83AF40;stroke:#000000;" d="M39.2,147.4c6.6,7.9,5.5,19.6-2.4,26.2c-7.9,6.6-19.6,5.5-26.2-2.4
				S5,151.6,12.9,145S32.6,139.5,39.2,147.4z"/>
			</g>
			<text transform="matrix(1 0 0 1 53.2 164.88)" style="font-family:-apple-system, BlinkMacSystemFont, 'Segoe UI', 'Roboto', Ubuntu, Liberation Sans, sans-serif; font-size:20px;">W3C Recommendation</text>
			<text transform="matrix(1 0 0 1 53.03 219.53)" style="font-family:-apple-system, BlinkMacSystemFont, 'Segoe UI', 'Roboto', Ubuntu, Liberation Sans, sans-serif; font-size:20px;">Candidate Recommondation</text>
			<text transform="matrix(1 0 0 1 53.19 274.177)" style="font-family:-apple-system, BlinkMacSystemFont, 'Segoe UI', 'Roboto',  Liberation Sans, sans-serif; font-size:20px;">Last Call</text>
			<text transform="matrix(1 0 0 1 53.2 328.825)" style="font-family:-apple-system, BlinkMacSystemFont, 'Segoe UI', 'Roboto', Ubuntu, Liberation Sans, sans-serif; font-size:20px;">Working Draft</text>
			<text transform="matrix(1 0 0 1 53.23 383.472)" style="font-family:-apple-system, BlinkMacSystemFont, 'Segoe UI', 'Roboto', Ubuntu, Liberation Sans, sans-serif; font-size:20px;">Obsolete or inactive</text>
		</g>
		<text transform="matrix(1 0 0 1 3.227 70.03)" style="font-family:-apple-system, BlinkMacSystemFont, 'Segoe UI', 'Roboto', Ubuntu, Liberation Sans,sans-serif;font-weight: bold; font-size:83.6653px;">CSS3</text>
		<text transform="matrix(1 0 0 1 4.936 106.677)" style="font-family:-apple-system, BlinkMacSystemFont, 'Segoe UI', 'Roboto', Ubuntu, Liberation Sans, sans-serif; font-size:22.0306px;">Taxonomy &amp; Status (September 2017)</text>
	</g>
</svg>
